<svg width="60" height="60" viewBox="0 0 60 60" fill="none" xmlns="http://www.w3.org/2000/svg">
<circle cx="30" cy="30" r="28.875" transform="matrix(-1 0 0 1 60 0)" stroke="white" stroke-width="2.25"/>
<path d="M16.6162 29.116L25.3662 20.366C25.602 20.1383 25.9178 20.0123 26.2455 20.0152C26.5732 20.018 26.8868 20.1495 27.1185 20.3813C27.3503 20.613 27.4817 20.9265 27.4846 21.2543C27.4874 21.582 27.3614 21.8978 27.1337 22.1335L20.5175 28.7498H42.5C42.8315 28.7498 43.1495 28.8815 43.3839 29.1159C43.6183 29.3503 43.75 29.6683 43.75 29.9998C43.75 30.3313 43.6183 30.6492 43.3839 30.8837C43.1495 31.1181 42.8315 31.2498 42.5 31.2498H20.5175L27.1337 37.866C27.2531 37.9813 27.3484 38.1193 27.4139 38.2718C27.4794 38.4243 27.5139 38.5883 27.5153 38.7543C27.5168 38.9202 27.4851 39.0848 27.4223 39.2385C27.3594 39.3921 27.2666 39.5317 27.1492 39.649C27.0319 39.7664 26.8923 39.8592 26.7387 39.9221C26.5851 39.9849 26.4205 40.0165 26.2545 40.0151C26.0885 40.0136 25.9245 39.9792 25.772 39.9137C25.6195 39.8481 25.4816 39.7529 25.3662 39.6335L16.6162 30.8835C16.3819 30.6491 16.2503 30.3312 16.2503 29.9998C16.2503 29.6683 16.3819 29.3504 16.6162 29.116Z" fill="white"/>
</svg>
