<svg width="60" height="60" viewBox="0 0 60 60" fill="none" xmlns="http://www.w3.org/2000/svg">
<circle cx="30" cy="30" r="30" fill="white"/>
<path d="M43.3838 29.116L34.6338 20.366C34.398 20.1383 34.0822 20.0123 33.7545 20.0152C33.4268 20.018 33.1132 20.1495 32.8815 20.3813C32.6497 20.613 32.5183 20.9265 32.5154 21.2543C32.5126 21.582 32.6386 21.8978 32.8663 22.1335L39.4825 28.7498H17.5C17.1685 28.7498 16.8505 28.8815 16.6161 29.1159C16.3817 29.3503 16.25 29.6683 16.25 29.9998C16.25 30.3313 16.3817 30.6492 16.6161 30.8837C16.8505 31.1181 17.1685 31.2498 17.5 31.2498H39.4825L32.8663 37.866C32.7469 37.9813 32.6516 38.1193 32.5861 38.2718C32.5206 38.4243 32.4861 38.5883 32.4847 38.7543C32.4832 38.9202 32.5149 39.0848 32.5777 39.2385C32.6406 39.3921 32.7334 39.5317 32.8508 39.649C32.9681 39.7664 33.1077 39.8592 33.2613 39.9221C33.4149 39.9849 33.5795 40.0165 33.7455 40.0151C33.9115 40.0136 34.0755 39.9792 34.228 39.9137C34.3805 39.8481 34.5184 39.7529 34.6338 39.6335L43.3838 30.8835C43.6181 30.6491 43.7497 30.3312 43.7497 29.9998C43.7497 29.6683 43.6181 29.3504 43.3838 29.116Z" fill="url(#paint0_linear_696_1540)"/>
<defs>
<linearGradient id="paint0_linear_696_1540" x1="29.9999" y1="40.0151" x2="29.9999" y2="20.0151" gradientUnits="userSpaceOnUse">
<stop stop-color="#000E38"/>
<stop offset="1" stop-color="#3F186A"/>
</linearGradient>
</defs>
</svg>
