<svg width="309" height="166" viewBox="0 0 309 166" fill="none" xmlns="http://www.w3.org/2000/svg">
<path d="M93.8066 59.8204H91.4858V41.9232H85.1651V39.8618H100.127V41.9232H93.8066V59.8204ZM109.629 44.5853C110.293 44.5853 110.889 44.6399 111.417 44.7491L111.103 46.8514C110.484 46.7149 109.938 46.6466 109.465 46.6466C108.255 46.6466 107.217 47.1381 106.352 48.121C105.497 49.1039 105.069 50.328 105.069 51.7933V59.8204H102.803V44.8583H104.673L104.933 47.6296H105.042C105.597 46.6557 106.266 45.9049 107.049 45.377C107.831 44.8492 108.691 44.5853 109.629 44.5853ZM116.345 44.8583V54.5646C116.345 55.7841 116.623 56.6942 117.178 57.2949C117.733 57.8956 118.602 58.1959 119.786 58.1959C121.351 58.1959 122.493 57.7681 123.212 56.9126C123.94 56.0571 124.304 54.6601 124.304 52.7216V44.8583H126.57V59.8204H124.7L124.373 57.8137H124.25C123.785 58.5508 123.139 59.1151 122.311 59.5064C121.492 59.8978 120.555 60.0935 119.499 60.0935C117.679 60.0935 116.314 59.6612 115.403 58.7966C114.502 57.932 114.052 56.5486 114.052 54.6465V44.8583H116.345ZM141.041 55.7386C141.041 57.1311 140.522 58.205 139.485 58.9604C138.447 59.7158 136.991 60.0935 135.116 60.0935C133.132 60.0935 131.585 59.7795 130.475 59.1515V57.0492C131.194 57.4132 131.963 57.6999 132.782 57.9092C133.61 58.1185 134.406 58.2232 135.171 58.2232C136.354 58.2232 137.264 58.0366 137.901 57.6635C138.538 57.2812 138.857 56.7033 138.857 55.9297C138.857 55.3473 138.602 54.8513 138.092 54.4417C137.592 54.0231 136.609 53.5316 135.144 52.9673C133.751 52.4486 132.759 51.9981 132.168 51.6158C131.585 51.2245 131.148 50.7831 130.857 50.2916C130.575 49.8002 130.434 49.2131 130.434 48.5306C130.434 47.311 130.93 46.3509 131.922 45.6501C132.914 44.9402 134.274 44.5853 136.004 44.5853C137.615 44.5853 139.189 44.9129 140.727 45.5682L139.922 47.4111C138.42 46.7923 137.059 46.4828 135.84 46.4828C134.766 46.4828 133.956 46.6512 133.41 46.9879C132.864 47.3247 132.591 47.7888 132.591 48.3804C132.591 48.7808 132.691 49.1221 132.891 49.4043C133.1 49.6864 133.433 49.9549 133.888 50.2097C134.343 50.4645 135.216 50.8331 136.509 51.3155C138.283 51.9617 139.48 52.6124 140.099 53.2677C140.727 53.9229 141.041 54.7466 141.041 55.7386ZM149.573 58.2232C149.974 58.2232 150.361 58.1959 150.734 58.1413C151.107 58.0776 151.403 58.0139 151.621 57.9502V59.6839C151.375 59.8022 151.011 59.8978 150.529 59.9706C150.056 60.0525 149.628 60.0935 149.246 60.0935C146.352 60.0935 144.904 58.569 144.904 55.5202V46.6193H142.761V45.5272L144.904 44.5853L145.86 41.3908H147.171V44.8583H151.512V46.6193H147.171V55.4246C147.171 56.3256 147.385 57.0173 147.812 57.4997C148.24 57.982 148.827 58.2232 149.573 58.2232ZM160.945 60.0935C158.734 60.0935 156.986 59.42 155.703 58.073C154.429 56.7261 153.792 54.8558 153.792 52.4622C153.792 50.0504 154.383 48.1347 155.566 46.7149C156.759 45.2951 158.356 44.5853 160.358 44.5853C162.233 44.5853 163.716 45.2041 164.809 46.4419C165.901 47.6705 166.447 49.2951 166.447 51.3155V52.7489H156.14C156.185 54.5054 156.627 55.8387 157.464 56.7488C158.31 57.6589 159.498 58.114 161.027 58.114C162.638 58.114 164.231 57.7772 165.805 57.1038V59.1242C165.004 59.47 164.244 59.7158 163.525 59.8614C162.815 60.0161 161.955 60.0935 160.945 60.0935ZM160.331 46.4828C159.129 46.4828 158.169 46.8742 157.45 47.6569C156.74 48.4396 156.322 49.5226 156.194 50.9059H164.017C164.017 49.4771 163.698 48.3849 163.061 47.6296C162.424 46.8651 161.514 46.4828 160.331 46.4828ZM180.508 57.8137H180.385C179.338 59.3335 177.773 60.0935 175.689 60.0935C173.732 60.0935 172.208 59.4245 171.116 58.0867C170.033 56.7488 169.491 54.8467 169.491 52.3803C169.491 49.9139 170.037 47.9982 171.129 46.633C172.221 45.2678 173.741 44.5853 175.689 44.5853C177.718 44.5853 179.275 45.3224 180.358 46.7968H180.535L180.44 45.7183L180.385 44.6672V38.5786H182.651V59.8204H180.808L180.508 57.8137ZM175.976 58.1959C177.523 58.1959 178.642 57.7772 179.334 56.9399C180.035 56.0935 180.385 54.7329 180.385 52.8581V52.3803C180.385 50.2598 180.03 48.749 179.32 47.848C178.619 46.9379 177.495 46.4828 175.948 46.4828C174.619 46.4828 173.6 47.0016 172.89 48.0391C172.189 49.0675 171.839 50.5237 171.839 52.4076C171.839 54.3188 172.189 55.7614 172.89 56.7352C173.591 57.709 174.619 58.1959 175.976 58.1959ZM201.695 44.6126C203.661 44.6126 205.185 45.286 206.268 46.633C207.361 47.9709 207.907 49.8684 207.907 52.3257C207.907 54.783 207.356 56.6942 206.255 58.0594C205.163 59.4154 203.643 60.0935 201.695 60.0935C200.721 60.0935 199.829 59.916 199.019 59.5611C198.219 59.197 197.545 58.6418 196.999 57.8956H196.835L196.357 59.8204H194.733V38.5786H196.999V43.7389C196.999 44.8947 196.963 45.9322 196.89 46.8514H196.999C198.055 45.3588 199.62 44.6126 201.695 44.6126ZM201.367 46.5101C199.82 46.5101 198.705 46.9561 198.023 47.848C197.34 48.7308 196.999 50.2234 196.999 52.3257C196.999 54.4281 197.349 55.9343 198.05 56.8444C198.751 57.7454 199.875 58.1959 201.422 58.1959C202.815 58.1959 203.852 57.6908 204.535 56.6806C205.217 55.6612 205.559 54.2005 205.559 52.2984C205.559 50.3508 205.217 48.8992 204.535 47.9435C203.852 46.9879 202.796 46.5101 201.367 46.5101ZM209.504 44.8583H211.934L215.21 53.3905C215.929 55.3382 216.375 56.7443 216.548 57.6089H216.657C216.776 57.1447 217.021 56.3529 217.394 55.2335C217.777 54.105 219.014 50.6466 221.108 44.8583H223.538L217.108 61.8955C216.471 63.5792 215.724 64.7714 214.869 65.4722C214.023 66.1821 212.98 66.537 211.743 66.537C211.051 66.537 210.368 66.4597 209.695 66.3049V64.4893C210.196 64.5985 210.755 64.6531 211.374 64.6531C212.93 64.6531 214.041 63.7794 214.705 62.032L215.538 59.9023L209.504 44.8583ZM98.0386 93.8204H93.8202V82.2712C93.8202 81.9526 93.8248 81.5613 93.8339 81.0971C93.843 80.6239 93.8566 80.1415 93.8748 79.6501C93.893 79.1495 93.9112 78.699 93.9294 78.2986C93.8293 78.4169 93.6246 78.6217 93.3151 78.9129C93.0148 79.195 92.7327 79.4499 92.4687 79.6774L90.1753 81.5203L88.1412 78.9812L94.5711 73.8618H98.0386V93.8204ZM120.714 93.8204L115.909 78.1621H115.786C115.804 78.5352 115.831 79.0995 115.868 79.8549C115.913 80.6011 115.954 81.3975 115.99 82.2439C116.027 83.0903 116.045 83.8548 116.045 84.5374V93.8204H112.264V73.8618H118.025L122.748 89.1243H122.83L127.84 73.8618H133.601V93.8204H129.656V84.3735C129.656 83.7456 129.665 83.022 129.683 82.2029C129.71 81.3838 129.742 80.6057 129.779 79.8685C129.815 79.1222 129.842 78.5625 129.86 78.1894H129.738L124.591 93.8204H120.714ZM142.475 78.558V93.8204H138.311V78.558H142.475ZM140.399 72.5786C141.018 72.5786 141.551 72.7242 141.997 73.0154C142.443 73.2975 142.666 73.83 142.666 74.6126C142.666 75.3862 142.443 75.9232 141.997 76.2235C141.551 76.5148 141.018 76.6604 140.399 76.6604C139.771 76.6604 139.235 76.5148 138.789 76.2235C138.352 75.9232 138.133 75.3862 138.133 74.6126C138.133 73.83 138.352 73.2975 138.789 73.0154C139.235 72.7242 139.771 72.5786 140.399 72.5786ZM151.02 93.8204H146.857V72.5786H151.02V93.8204ZM159.566 93.8204H155.403V72.5786H159.566V93.8204ZM168.112 78.558V93.8204H163.948V78.558H168.112ZM166.037 72.5786C166.656 72.5786 167.188 72.7242 167.634 73.0154C168.08 73.2975 168.303 73.83 168.303 74.6126C168.303 75.3862 168.08 75.9232 167.634 76.2235C167.188 76.5148 166.656 76.6604 166.037 76.6604C165.409 76.6604 164.872 76.5148 164.426 76.2235C163.989 75.9232 163.771 75.3862 163.771 74.6126C163.771 73.83 163.989 73.2975 164.426 73.0154C164.872 72.7242 165.409 72.5786 166.037 72.5786ZM186.364 86.1619C186.364 87.436 186.191 88.5646 185.846 89.5475C185.509 90.5304 185.013 91.3631 184.358 92.0457C183.711 92.7192 182.929 93.2289 182.01 93.5747C181.099 93.9205 180.071 94.0935 178.924 94.0935C177.85 94.0935 176.863 93.9205 175.962 93.5747C175.07 93.2289 174.292 92.7192 173.627 92.0457C172.972 91.3631 172.463 90.5304 172.098 89.5475C171.744 88.5646 171.566 87.436 171.566 86.1619C171.566 84.4691 171.866 83.0357 172.467 81.8616C173.068 80.6876 173.923 79.7957 175.034 79.1859C176.144 78.5762 177.468 78.2713 179.006 78.2713C180.435 78.2713 181.7 78.5762 182.801 79.1859C183.912 79.7957 184.781 80.6876 185.409 81.8616C186.046 83.0357 186.364 84.4691 186.364 86.1619ZM175.812 86.1619C175.812 87.163 175.921 88.0049 176.139 88.6874C176.358 89.37 176.699 89.8842 177.163 90.2301C177.627 90.5759 178.233 90.7488 178.979 90.7488C179.716 90.7488 180.312 90.5759 180.767 90.2301C181.231 89.8842 181.568 89.37 181.777 88.6874C181.996 88.0049 182.105 87.163 182.105 86.1619C182.105 85.1517 181.996 84.3144 181.777 83.65C181.568 82.9765 181.231 82.4714 180.767 82.1347C180.303 81.7979 179.698 81.6296 178.952 81.6296C177.85 81.6296 177.049 82.0073 176.549 82.7626C176.057 83.518 175.812 84.6511 175.812 86.1619ZM198.473 78.2713C200.102 78.2713 201.413 78.7172 202.405 79.6091C203.397 80.4919 203.893 81.9117 203.893 83.8684V93.8204H199.729V84.9059C199.729 83.8138 199.529 82.9902 199.129 82.435C198.737 81.8798 198.118 81.6023 197.272 81.6023C195.998 81.6023 195.129 82.0346 194.665 82.8992C194.2 83.7638 193.968 85.0106 193.968 86.6397V93.8204H189.805V78.558H192.985L193.545 80.5101H193.777C194.105 79.9823 194.51 79.5545 194.992 79.2269C195.484 78.8992 196.025 78.6581 196.617 78.5033C197.217 78.3486 197.836 78.2713 198.473 78.2713ZM215.47 82.476H220.753V85.4657H215.47V90.7215H212.48V85.4657H207.197V82.476H212.48V77.1518H215.47V82.476ZM119.676 113.677C119.676 115.698 118.985 117.254 117.601 118.346C116.227 119.429 114.257 119.971 111.69 119.971H109.342V127.82H107.021V107.862H112.195C117.183 107.862 119.676 109.8 119.676 113.677ZM109.342 117.978H111.431C113.488 117.978 114.976 117.645 115.895 116.981C116.814 116.317 117.274 115.252 117.274 113.787C117.274 112.467 116.841 111.484 115.977 110.838C115.112 110.192 113.765 109.869 111.936 109.869H109.342V117.978ZM132.727 127.82L132.277 125.691H132.168C131.421 126.628 130.675 127.265 129.929 127.602C129.192 127.93 128.268 128.093 127.157 128.093C125.674 128.093 124.509 127.711 123.663 126.947C122.825 126.182 122.407 125.095 122.407 123.684C122.407 120.662 124.823 119.079 129.656 118.933L132.195 118.851V117.923C132.195 116.749 131.94 115.884 131.43 115.329C130.93 114.765 130.124 114.483 129.014 114.483C127.767 114.483 126.357 114.865 124.782 115.63L124.086 113.896C124.823 113.495 125.628 113.181 126.502 112.954C127.385 112.726 128.268 112.613 129.151 112.613C130.934 112.613 132.254 113.008 133.11 113.8C133.974 114.592 134.406 115.862 134.406 117.609V127.82H132.727ZM127.608 126.223C129.019 126.223 130.124 125.836 130.925 125.063C131.735 124.289 132.14 123.206 132.14 121.814V120.462L129.874 120.558C128.072 120.621 126.771 120.904 125.97 121.404C125.178 121.896 124.782 122.665 124.782 123.711C124.782 124.53 125.028 125.154 125.519 125.582C126.02 126.009 126.716 126.223 127.608 126.223ZM145.915 112.585C146.579 112.585 147.175 112.64 147.703 112.749L147.389 114.851C146.77 114.715 146.224 114.647 145.751 114.647C144.54 114.647 143.503 115.138 142.638 116.121C141.783 117.104 141.355 118.328 141.355 119.793V127.82H139.089V112.858H140.959L141.219 115.63H141.328C141.883 114.656 142.552 113.905 143.335 113.377C144.117 112.849 144.977 112.585 145.915 112.585ZM156.822 128.093C154.611 128.093 152.863 127.42 151.58 126.073C150.306 124.726 149.669 122.856 149.669 120.462C149.669 118.05 150.26 116.135 151.444 114.715C152.636 113.295 154.233 112.585 156.235 112.585C158.11 112.585 159.594 113.204 160.686 114.442C161.778 115.671 162.324 117.295 162.324 119.315V120.749H152.017C152.062 122.505 152.504 123.839 153.341 124.749C154.188 125.659 155.375 126.114 156.904 126.114C158.515 126.114 160.108 125.777 161.682 125.104V127.124C160.881 127.47 160.121 127.716 159.402 127.861C158.693 128.016 157.833 128.093 156.822 128.093ZM156.208 114.483C155.007 114.483 154.047 114.874 153.328 115.657C152.618 116.44 152.199 117.523 152.072 118.906H159.894C159.894 117.477 159.575 116.385 158.938 115.63C158.301 114.865 157.391 114.483 156.208 114.483ZM176.44 127.82V118.141C176.44 116.922 176.162 116.012 175.607 115.411C175.052 114.81 174.183 114.51 172.999 114.51C171.434 114.51 170.287 114.933 169.559 115.78C168.831 116.626 168.467 118.023 168.467 119.971V127.82H166.201V112.858H168.044L168.413 114.906H168.522C168.986 114.169 169.637 113.6 170.474 113.2C171.311 112.79 172.244 112.585 173.273 112.585C175.075 112.585 176.431 113.022 177.341 113.896C178.251 114.76 178.706 116.148 178.706 118.06V127.82H176.44ZM188.207 126.223C188.608 126.223 188.995 126.196 189.368 126.141C189.741 126.078 190.037 126.014 190.255 125.95V127.684C190.009 127.802 189.645 127.898 189.163 127.971C188.69 128.053 188.262 128.093 187.88 128.093C184.986 128.093 183.539 126.569 183.539 123.52V114.619H181.395V113.527L183.539 112.585L184.494 109.391H185.805V112.858H190.146V114.619H185.805V123.425C185.805 124.326 186.019 125.017 186.446 125.5C186.874 125.982 187.461 126.223 188.207 126.223ZM202.91 123.739C202.91 125.131 202.391 126.205 201.354 126.96C200.316 127.716 198.86 128.093 196.985 128.093C195.001 128.093 193.454 127.779 192.344 127.152V125.049C193.063 125.413 193.832 125.7 194.651 125.909C195.479 126.119 196.275 126.223 197.04 126.223C198.223 126.223 199.133 126.037 199.77 125.663C200.407 125.281 200.726 124.703 200.726 123.93C200.726 123.347 200.471 122.851 199.961 122.442C199.461 122.023 198.478 121.532 197.013 120.967C195.62 120.449 194.628 119.998 194.037 119.616C193.454 119.224 193.017 118.783 192.726 118.292C192.444 117.8 192.303 117.213 192.303 116.531C192.303 115.311 192.799 114.351 193.791 113.65C194.783 112.94 196.143 112.585 197.873 112.585C199.484 112.585 201.058 112.913 202.596 113.568L201.791 115.411C200.289 114.792 198.928 114.483 197.709 114.483C196.635 114.483 195.825 114.651 195.279 114.988C194.733 115.325 194.46 115.789 194.46 116.38C194.46 116.781 194.56 117.122 194.76 117.404C194.969 117.686 195.302 117.955 195.757 118.21C196.212 118.465 197.085 118.833 198.378 119.315C200.152 119.962 201.349 120.612 201.968 121.268C202.596 121.923 202.91 122.747 202.91 123.739Z" fill="url(#paint0_linear_696_1239)"/>
<g clip-path="url(#clip0_696_1239)">
<path fill-rule="evenodd" clip-rule="evenodd" d="M46.2889 11.9253C31.9034 26.3733 22.3283 46.6121 20.8499 69.4423C17.8364 116.204 49.962 156.096 92.6066 158.55L92.2086 164.765C48.2676 162.231 15.1753 121.134 18.2799 72.9511C19.8606 48.4812 30.4706 26.9008 46.3002 11.9253H46.2889Z" fill="#ED923A" fill-opacity="0.3"/>
<path fill-rule="evenodd" clip-rule="evenodd" d="M65.2085 159.915C56.8956 162.632 51.9148 154.892 44.8755 153.666C37.8363 152.439 35.6302 156.67 30.9336 158.206C41.555 166.749 53.0065 167.242 65.1971 159.915H65.2085Z" fill="#ED923A" fill-opacity="0.3"/>
<path fill-rule="evenodd" clip-rule="evenodd" d="M50.2329 148.746C41.6357 149.572 38.1786 140.834 31.5375 138.048C24.8963 135.261 21.9851 138.942 17.1406 139.412C25.9652 150.202 37.0301 153.241 50.2329 148.746Z" fill="#ED923A" fill-opacity="0.3"/>
<path fill-rule="evenodd" clip-rule="evenodd" d="M34.3158 131.581C26.6284 130.927 24.7406 122.614 19.2594 119.082C13.7667 115.55 10.7191 118.337 6.375 117.97C12.7092 128.967 22.0682 133.45 34.3271 131.581H34.3158Z" fill="#ED923A" fill-opacity="0.3"/>
<path fill-rule="evenodd" clip-rule="evenodd" d="M25.57 114.965C18.5535 112.683 18.3147 104.508 13.8683 100.013C9.42186 95.5177 6.07852 97.467 2.12109 96.1827C6.01029 107.833 13.8796 114.048 25.5813 114.954L25.57 114.965Z" fill="#ED923A" fill-opacity="0.3"/>
<path fill-rule="evenodd" clip-rule="evenodd" d="M20.0373 97.9255C13.5098 94.325 14.5788 86.2066 10.9284 80.9204C7.27802 75.6343 3.6845 76.9185 0 74.8889C1.95597 87.1468 8.68814 94.7837 20.0373 97.9255Z" fill="#ED923A" fill-opacity="0.3"/>
<path fill-rule="evenodd" clip-rule="evenodd" d="M18.4092 79.3498C12.7915 74.27 15.4411 66.5644 12.9507 60.51C10.4602 54.4556 6.70748 54.8569 3.53472 51.9902C3.00024 64.466 8.01525 73.5706 18.4092 79.3498Z" fill="#ED923A" fill-opacity="0.3"/>
<path fill-rule="evenodd" clip-rule="evenodd" d="M20.54 58.5833C16.8782 52.5059 21.0403 46.4974 20.3239 40.4659C19.6188 34.4229 16.2641 33.7005 14.1944 30.2605C10.726 41.0621 12.898 50.5107 20.54 58.5833Z" fill="#ED923A" fill-opacity="0.3"/>
<path fill-rule="evenodd" clip-rule="evenodd" d="M24.6658 40.9823C23.1078 34.6297 28.1797 30.7539 29.1236 25.3417C30.0674 19.9294 27.4064 18.2782 26.5308 14.6891C20.8221 22.9107 20.2535 31.6827 24.6771 40.9708L24.6658 40.9823Z" fill="#ED923A" fill-opacity="0.3"/>
<path fill-rule="evenodd" clip-rule="evenodd" d="M33.3839 26.6257C32.8381 21.7982 36.8865 19.5278 38.0692 15.675C39.2518 11.8222 37.4664 10.3086 37.1594 7.59094C32.2467 12.9803 31.0072 19.3329 33.3726 26.6257H33.3839Z" fill="#ED923A" fill-opacity="0.3"/>
<path fill-rule="evenodd" clip-rule="evenodd" d="M42.0118 14.9411C42.8419 10.7443 46.788 10.1365 48.778 7.30424C50.7795 4.47196 49.7105 2.64876 50.1768 0.275146C44.6955 3.19916 42.0004 8.11837 42.0118 14.9411Z" fill="#ED923A" fill-opacity="0.3"/>
<path fill-rule="evenodd" clip-rule="evenodd" d="M76.734 154.009C71.5825 147.898 75.0623 140.662 73.1632 134.149C71.2641 127.625 67.4431 127.349 64.5319 123.909C62.7011 136.305 66.8291 146.338 76.734 154.021V154.009Z" fill="#ED923A" fill-opacity="0.3"/>
<path fill-rule="evenodd" clip-rule="evenodd" d="M61.7737 146.705C56.7587 140.639 60.3181 133.404 58.5441 126.913C56.7701 120.423 52.9832 120.16 50.1516 116.742C48.1388 129.104 52.0848 139.091 61.7737 146.705Z" fill="#ED923A" fill-opacity="0.3"/>
<path fill-rule="evenodd" clip-rule="evenodd" d="M45.0549 132.888C41.8139 126.294 46.4991 120.641 46.2489 114.426C45.9988 108.2 42.6554 107.088 40.8245 103.372C36.4691 113.979 37.9475 123.829 45.0549 132.899V132.888Z" fill="#ED923A" fill-opacity="0.3"/>
<path fill-rule="evenodd" clip-rule="evenodd" d="M32.309 115.687C30.535 108.934 35.8798 104.679 36.8009 98.8772C37.7106 93.0751 34.8449 91.3665 33.8328 87.5596C27.8739 96.4577 27.4191 105.86 32.309 115.687Z" fill="#ED923A" fill-opacity="0.3"/>
<path fill-rule="evenodd" clip-rule="evenodd" d="M24.9515 94.6693C24.2578 88.4543 29.4889 85.5303 31.0127 80.5652C32.548 75.6001 30.2508 73.6623 29.8642 70.1534C23.5187 77.0793 21.9152 85.278 24.9515 94.6693Z" fill="#ED923A" fill-opacity="0.3"/>
<path fill-rule="evenodd" clip-rule="evenodd" d="M23.6623 72.8824C24.3674 67.2981 29.4847 66.0597 31.8501 62.1266C34.2154 58.1935 32.6461 55.9231 33.0327 52.7698C26.1073 57.2074 23.0141 63.9383 23.6623 72.8824Z" fill="#ED923A" fill-opacity="0.3"/>
<path fill-rule="evenodd" clip-rule="evenodd" d="M26.793 52.3915C28.5556 47.7819 33.1499 47.9997 35.9815 45.2248C38.8017 42.4384 37.9488 40.0992 38.9382 37.4962C32.1378 39.5717 28.1121 44.5712 26.793 52.3915Z" fill="#ED923A" fill-opacity="0.3"/>
<path fill-rule="evenodd" clip-rule="evenodd" d="M33.0703 36.7052C35.2423 33.0129 39.177 33.9876 42.02 32.0612C44.8516 30.1348 44.4422 27.9561 45.6704 25.8691C39.5182 26.4998 35.3333 30.1462 33.0703 36.7052Z" fill="#ED923A" fill-opacity="0.3"/>
<path fill-rule="evenodd" clip-rule="evenodd" d="M40.9844 22.7383C43.0427 19.9404 46.1586 21.11 48.6036 19.8143C51.0485 18.5185 50.9007 16.7068 52.0606 15.1244C47.0229 15.0441 43.3384 17.6127 40.9844 22.7268V22.7383Z" fill="#ED923A" fill-opacity="0.3"/>
<path fill-rule="evenodd" clip-rule="evenodd" d="M50.3906 9.78134C52.358 6.44453 55.906 7.32746 58.4647 5.58452C61.0234 3.85305 60.6595 1.88078 61.7625 -0.0112305C56.2017 0.550638 52.4262 3.85305 50.3906 9.76987V9.78134Z" fill="#ED923A" fill-opacity="0.3"/>
</g>
<g clip-path="url(#clip1_696_1239)">
<path fill-rule="evenodd" clip-rule="evenodd" d="M262.586 11.9253C276.972 26.3733 286.547 46.6121 288.025 69.4423C291.039 116.204 258.913 156.096 216.268 158.55L216.666 164.765C260.607 162.231 293.7 121.134 290.595 72.9511C289.014 48.4812 278.404 26.9008 262.575 11.9253H262.586Z" fill="#ED923A" fill-opacity="0.3"/>
<path fill-rule="evenodd" clip-rule="evenodd" d="M243.659 159.915C251.972 162.632 256.952 154.892 263.992 153.666C271.031 152.439 273.237 156.67 277.934 158.206C267.312 166.749 255.861 167.242 243.67 159.915H243.659Z" fill="#ED923A" fill-opacity="0.3"/>
<path fill-rule="evenodd" clip-rule="evenodd" d="M258.638 148.746C267.235 149.572 270.692 140.834 277.334 138.048C283.975 135.261 286.886 138.942 291.73 139.412C282.906 150.202 271.841 153.241 258.638 148.746Z" fill="#ED923A" fill-opacity="0.3"/>
<path fill-rule="evenodd" clip-rule="evenodd" d="M274.551 131.58C282.239 130.927 284.127 122.613 289.608 119.082C295.1 115.55 298.148 118.336 302.492 117.969C296.158 128.966 286.799 133.449 274.54 131.58H274.551Z" fill="#ED923A" fill-opacity="0.3"/>
<path fill-rule="evenodd" clip-rule="evenodd" d="M283.309 114.965C290.325 112.683 290.564 104.508 295.011 100.013C299.457 95.5177 302.8 97.467 306.758 96.1827C302.869 107.833 294.999 114.048 283.298 114.954L283.309 114.965Z" fill="#ED923A" fill-opacity="0.3"/>
<path fill-rule="evenodd" clip-rule="evenodd" d="M288.834 97.9255C295.361 94.325 294.292 86.2066 297.943 80.9204C301.593 75.6343 305.187 76.9185 308.871 74.8889C306.915 87.1468 300.183 94.7837 288.834 97.9255Z" fill="#ED923A" fill-opacity="0.3"/>
<path fill-rule="evenodd" clip-rule="evenodd" d="M290.458 79.3498C296.076 74.27 293.426 66.5644 295.917 60.51C298.407 54.4556 302.16 54.8569 305.332 51.9902C305.867 64.466 300.852 73.5706 290.458 79.3498Z" fill="#ED923A" fill-opacity="0.3"/>
<path fill-rule="evenodd" clip-rule="evenodd" d="M288.331 58.5833C291.993 52.5059 287.831 46.4974 288.547 40.4659C289.252 34.4229 292.607 33.7005 294.677 30.2605C298.145 41.0621 295.973 50.5107 288.331 58.5833Z" fill="#ED923A" fill-opacity="0.3"/>
<path fill-rule="evenodd" clip-rule="evenodd" d="M284.205 40.9819C285.763 34.6293 280.691 30.7536 279.748 25.3413C278.804 19.929 281.465 18.2778 282.34 14.6887C288.049 22.9104 288.618 31.6824 284.194 40.9704L284.205 40.9819Z" fill="#ED923A" fill-opacity="0.3"/>
<path fill-rule="evenodd" clip-rule="evenodd" d="M275.495 26.6258C276.041 21.7983 271.992 19.5279 270.81 15.6751C269.627 11.8223 271.412 10.3087 271.72 7.59106C276.632 12.9804 277.872 19.333 275.506 26.6258H275.495Z" fill="#ED923A" fill-opacity="0.3"/>
<path fill-rule="evenodd" clip-rule="evenodd" d="M266.867 14.9414C266.037 10.7446 262.091 10.1369 260.101 7.30461C258.099 4.47233 259.168 2.64912 258.702 0.275513C264.183 3.19952 266.879 8.11874 266.867 14.9414Z" fill="#ED923A" fill-opacity="0.3"/>
<path fill-rule="evenodd" clip-rule="evenodd" d="M232.133 154.009C237.285 147.898 233.805 140.662 235.704 134.149C237.603 127.625 241.424 127.349 244.335 123.909C246.166 136.305 242.038 146.338 232.133 154.021V154.009Z" fill="#ED923A" fill-opacity="0.3"/>
<path fill-rule="evenodd" clip-rule="evenodd" d="M247.101 146.705C252.116 140.639 248.557 133.404 250.331 126.913C252.105 120.423 255.892 120.16 258.723 116.742C260.736 129.104 256.79 139.091 247.101 146.705Z" fill="#ED923A" fill-opacity="0.3"/>
<path fill-rule="evenodd" clip-rule="evenodd" d="M263.816 132.888C267.057 126.294 262.372 120.641 262.622 114.426C262.872 108.2 266.216 107.088 268.047 103.372C272.402 113.979 270.924 123.829 263.816 132.899V132.888Z" fill="#ED923A" fill-opacity="0.3"/>
<path fill-rule="evenodd" clip-rule="evenodd" d="M276.562 115.687C278.336 108.934 272.991 104.679 272.07 98.8772C271.16 93.0751 274.026 91.3665 275.038 87.5596C280.997 96.4577 281.452 105.86 276.562 115.687Z" fill="#ED923A" fill-opacity="0.3"/>
<path fill-rule="evenodd" clip-rule="evenodd" d="M283.931 94.6693C284.625 88.4543 279.394 85.5303 277.87 80.5652C276.335 75.6001 278.632 73.6623 279.019 70.1534C285.364 77.0793 286.968 85.278 283.931 94.6693Z" fill="#ED923A" fill-opacity="0.3"/>
<path fill-rule="evenodd" clip-rule="evenodd" d="M285.209 72.8824C284.504 67.2981 279.386 66.0597 277.021 62.1266C274.656 58.1935 276.225 55.9231 275.838 52.7698C282.764 57.2074 285.857 63.9383 285.209 72.8824Z" fill="#ED923A" fill-opacity="0.3"/>
<path fill-rule="evenodd" clip-rule="evenodd" d="M282.078 52.3915C280.315 47.7819 275.721 47.9997 272.89 45.2248C270.069 42.4384 270.922 40.0992 269.933 37.4962C276.733 39.5717 280.759 44.5712 282.078 52.3915Z" fill="#ED923A" fill-opacity="0.3"/>
<path fill-rule="evenodd" clip-rule="evenodd" d="M275.797 36.7052C273.625 33.0129 269.69 33.9876 266.847 32.0612C264.016 30.1348 264.425 27.9561 263.197 25.8691C269.349 26.4998 273.534 30.1462 275.797 36.7052Z" fill="#ED923A" fill-opacity="0.3"/>
<path fill-rule="evenodd" clip-rule="evenodd" d="M267.887 22.7385C265.828 19.9406 262.713 21.1103 260.268 19.8145C257.823 18.5188 257.97 16.707 256.81 15.1246C261.848 15.0444 265.533 17.6129 267.887 22.7271V22.7385Z" fill="#ED923A" fill-opacity="0.3"/>
<path fill-rule="evenodd" clip-rule="evenodd" d="M258.48 9.78134C256.513 6.44453 252.965 7.32746 250.406 5.58452C247.848 3.85305 248.212 1.88078 247.109 -0.0112305C252.669 0.550638 256.445 3.85305 258.48 9.76987V9.78134Z" fill="#ED923A" fill-opacity="0.3"/>
</g>
<defs>
<linearGradient id="paint0_linear_696_1239" x1="84.7422" y1="82.8204" x2="223.742" y2="82.8204" gradientUnits="userSpaceOnUse">
<stop stop-color="#010E39"/>
<stop offset="1" stop-color="#0344A2"/>
</linearGradient>
<clipPath id="clip0_696_1239">
<rect width="92.59" height="165.052" fill="white"/>
</clipPath>
<clipPath id="clip1_696_1239">
<rect width="92.59" height="165.052" fill="white" transform="matrix(-1 0 0 1 308.871 0)"/>
</clipPath>
</defs>
</svg>
