<svg width="309" height="166" viewBox="0 0 309 166" fill="none" xmlns="http://www.w3.org/2000/svg">
<path d="M145.607 59.8204H131.655V56.8853L136.665 51.8206C137.675 50.7831 138.485 49.9185 139.095 49.2268C139.714 48.526 140.16 47.8889 140.433 47.3156C140.715 46.7422 140.856 46.1279 140.856 45.4726C140.856 44.6808 140.633 44.0892 140.187 43.6979C139.75 43.2975 139.163 43.0972 138.426 43.0972C137.653 43.0972 136.902 43.2747 136.174 43.6296C135.446 43.9846 134.686 44.4897 133.894 45.145L131.6 42.4283C132.174 41.9368 132.779 41.4727 133.416 41.0358C134.062 40.599 134.809 40.2486 135.655 39.9847C136.51 39.7116 137.534 39.5751 138.727 39.5751C140.037 39.5751 141.161 39.8117 142.099 40.285C143.045 40.7583 143.773 41.4044 144.283 42.2235C144.792 43.0335 145.047 43.9527 145.047 44.9812C145.047 46.0824 144.829 47.088 144.392 47.9982C143.955 48.9083 143.318 49.8093 142.481 50.7012C141.653 51.5931 140.651 52.5805 139.477 53.6636L136.911 56.0799V56.271H145.607V59.8204ZM161.607 59.8204H147.655V56.8853L152.665 51.8206C153.675 50.7831 154.485 49.9185 155.095 49.2268C155.714 48.526 156.16 47.8889 156.433 47.3156C156.715 46.7422 156.856 46.1279 156.856 45.4726C156.856 44.6808 156.633 44.0892 156.187 43.6979C155.75 43.2975 155.163 43.0972 154.426 43.0972C153.652 43.0972 152.902 43.2747 152.173 43.6296C151.445 43.9846 150.685 44.4897 149.894 45.145L147.6 42.4283C148.174 41.9368 148.779 41.4727 149.416 41.0358C150.062 40.599 150.808 40.2486 151.655 39.9847C152.51 39.7116 153.534 39.5751 154.726 39.5751C156.037 39.5751 157.161 39.8117 158.098 40.285C159.045 40.7583 159.773 41.4044 160.282 42.2235C160.792 43.0335 161.047 43.9527 161.047 44.9812C161.047 46.0824 160.829 47.088 160.392 47.9982C159.955 48.9083 159.318 49.8093 158.48 50.7012C157.652 51.5931 156.651 52.5805 155.477 53.6636L152.911 56.0799V56.271H161.607V59.8204ZM172.009 48.476H177.292V51.4657H172.009V56.7215H169.019V51.4657H163.736V48.476H169.019V43.1518H172.009V48.476ZM120.898 82.0801L125.061 73.8618H129.621L123 86.0527V93.8204H118.795V86.1892L112.174 73.8618H116.761L120.898 82.0801ZM138.099 78.2713C139.509 78.2713 140.724 78.5443 141.744 79.0904C142.763 79.6273 143.55 80.41 144.105 81.4384C144.661 82.4669 144.938 83.7228 144.938 85.2063V87.2267H135.095C135.141 88.4008 135.491 89.3245 136.146 89.998C136.811 90.6624 137.73 90.9946 138.904 90.9946C139.878 90.9946 140.77 90.8944 141.58 90.6942C142.39 90.494 143.223 90.1937 144.078 89.7932V93.015C143.323 93.3881 142.531 93.6612 141.703 93.8341C140.884 94.007 139.887 94.0935 138.713 94.0935C137.184 94.0935 135.828 93.8113 134.645 93.2471C133.471 92.6828 132.547 91.8228 131.874 90.6669C131.209 89.5111 130.877 88.0549 130.877 86.2984C130.877 84.5146 131.177 83.0311 131.778 81.848C132.388 80.6557 133.234 79.7638 134.317 79.1723C135.4 78.5716 136.661 78.2713 138.099 78.2713ZM138.126 81.2337C137.316 81.2337 136.642 81.493 136.106 82.0118C135.578 82.5306 135.273 83.3451 135.191 84.4554H141.034C141.025 83.8366 140.911 83.286 140.692 82.8036C140.483 82.3212 140.165 81.939 139.737 81.6569C139.318 81.3747 138.781 81.2337 138.126 81.2337ZM154.576 78.244C156.624 78.244 158.194 78.6899 159.286 79.5818C160.378 80.4737 160.924 81.8298 160.924 83.65V93.8204H158.016L157.211 91.7454H157.102C156.665 92.2915 156.219 92.7374 155.764 93.0832C155.309 93.4291 154.785 93.6839 154.194 93.8477C153.602 94.0116 152.883 94.0935 152.037 94.0935C151.136 94.0935 150.326 93.9205 149.607 93.5747C148.897 93.2289 148.337 92.701 147.928 91.9911C147.518 91.2721 147.313 90.362 147.313 89.2608C147.313 87.6408 147.882 86.4486 149.02 85.6841C150.158 84.9105 151.864 84.4827 154.139 84.4008L156.788 84.3189V83.65C156.788 82.8491 156.578 82.2621 156.16 81.8889C155.741 81.5158 155.159 81.3292 154.412 81.3292C153.675 81.3292 152.952 81.4339 152.242 81.6432C151.532 81.8525 150.822 82.1165 150.112 82.435L148.733 79.6228C149.543 79.195 150.449 78.8583 151.45 78.6126C152.46 78.3668 153.502 78.244 154.576 78.244ZM156.788 86.7489L155.177 86.8035C153.83 86.8399 152.892 87.0811 152.365 87.527C151.846 87.973 151.586 88.56 151.586 89.2881C151.586 89.9252 151.773 90.3802 152.146 90.6533C152.519 90.9172 153.006 91.0492 153.607 91.0492C154.499 91.0492 155.25 90.7852 155.859 90.2574C156.478 89.7295 156.788 88.9787 156.788 88.0049V86.7489ZM173.743 78.2713C173.952 78.2713 174.193 78.2849 174.466 78.3122C174.749 78.3304 174.976 78.3577 175.149 78.3941L174.835 82.2985C174.699 82.253 174.503 82.2211 174.248 82.2029C174.002 82.1756 173.788 82.162 173.606 82.162C173.069 82.162 172.546 82.2302 172.037 82.3667C171.536 82.5033 171.085 82.7262 170.685 83.0357C170.285 83.336 169.966 83.7365 169.729 84.237C169.502 84.7285 169.388 85.3337 169.388 86.0527V93.8204H165.224V78.558H168.378L168.992 81.1245H169.197C169.497 80.6057 169.87 80.1324 170.316 79.7047C170.771 79.2678 171.286 78.922 171.859 78.6672C172.441 78.4032 173.069 78.2713 173.743 78.2713ZM188.569 89.2881C188.569 90.3256 188.323 91.2039 187.831 91.9229C187.349 92.6327 186.626 93.1743 185.661 93.5474C184.696 93.9114 183.495 94.0935 182.057 94.0935C180.992 94.0935 180.077 94.0252 179.313 93.8887C178.557 93.7522 177.793 93.5247 177.019 93.2061V89.7659C177.848 90.1391 178.735 90.4485 179.681 90.6942C180.637 90.9308 181.474 91.0492 182.193 91.0492C183.003 91.0492 183.581 90.9308 183.927 90.6942C184.282 90.4485 184.459 90.13 184.459 89.7386C184.459 89.4838 184.387 89.2563 184.241 89.056C184.105 88.8467 183.804 88.6146 183.34 88.3598C182.876 88.0959 182.148 87.7546 181.156 87.3359C180.2 86.9355 179.413 86.5305 178.794 86.1209C178.184 85.7114 177.729 85.229 177.429 84.6739C177.138 84.1096 176.992 83.3952 176.992 82.5306C176.992 81.1199 177.538 80.0596 178.63 79.3497C179.731 78.6308 181.201 78.2713 183.04 78.2713C183.986 78.2713 184.887 78.3668 185.743 78.558C186.607 78.7491 187.495 79.054 188.405 79.4726L187.149 82.476C186.393 82.1483 185.679 81.8798 185.006 81.6705C184.341 81.4612 183.663 81.3565 182.971 81.3565C182.362 81.3565 181.902 81.4384 181.593 81.6023C181.283 81.7661 181.128 82.0164 181.128 82.3531C181.128 82.5988 181.206 82.8173 181.361 83.0084C181.524 83.1995 181.834 83.4134 182.289 83.65C182.753 83.8775 183.431 84.1733 184.323 84.5374C185.188 84.8923 185.938 85.2654 186.575 85.6568C187.213 86.039 187.704 86.5168 188.05 87.0902C188.396 87.6545 188.569 88.3871 188.569 89.2881ZM108.775 120.326C108.775 122.765 108.161 124.671 106.932 126.046C105.703 127.411 104.006 128.093 101.84 128.093C100.502 128.093 99.3145 127.779 98.2769 127.152C97.2394 126.524 96.4385 125.623 95.8743 124.448C95.31 123.274 95.0279 121.9 95.0279 120.326C95.0279 117.887 95.6376 115.989 96.8572 114.633C98.0767 113.268 99.7695 112.585 101.936 112.585C104.029 112.585 105.69 113.281 106.918 114.674C108.156 116.066 108.775 117.95 108.775 120.326ZM97.3759 120.326C97.3759 122.237 97.7582 123.693 98.5227 124.694C99.2872 125.695 100.411 126.196 101.895 126.196C103.378 126.196 104.502 125.7 105.267 124.708C106.04 123.707 106.427 122.246 106.427 120.326C106.427 118.424 106.04 116.981 105.267 115.998C104.502 115.006 103.369 114.51 101.867 114.51C100.384 114.51 99.2644 114.997 98.509 115.971C97.7536 116.945 97.3759 118.396 97.3759 120.326ZM119.505 114.619H115.696V127.82H113.43V114.619H110.754V113.595L113.43 112.776V111.944C113.43 108.267 115.037 106.428 118.249 106.428C119.041 106.428 119.969 106.588 121.034 106.906L120.447 108.722C119.573 108.44 118.827 108.299 118.208 108.299C117.353 108.299 116.72 108.585 116.311 109.159C115.901 109.723 115.696 110.633 115.696 111.889V112.858H119.505V114.619ZM129.839 127.82V107.862H132.16V125.718H140.965V127.82H129.839ZM150.344 128.093C148.133 128.093 146.385 127.42 145.102 126.073C143.828 124.726 143.191 122.856 143.191 120.462C143.191 118.05 143.782 116.135 144.965 114.715C146.158 113.295 147.755 112.585 149.757 112.585C151.632 112.585 153.115 113.204 154.208 114.442C155.3 115.671 155.846 117.295 155.846 119.315V120.749H145.539C145.584 122.505 146.026 123.839 146.863 124.749C147.709 125.659 148.897 126.114 150.426 126.114C152.037 126.114 153.63 125.777 155.204 125.104V127.124C154.403 127.47 153.643 127.716 152.924 127.861C152.214 128.016 151.354 128.093 150.344 128.093ZM149.73 114.483C148.528 114.483 147.568 114.874 146.849 115.657C146.139 116.44 145.721 117.523 145.593 118.906H153.416C153.416 117.477 153.097 116.385 152.46 115.63C151.823 114.865 150.913 114.483 149.73 114.483ZM171.968 112.858V114.292L169.197 114.619C169.452 114.938 169.679 115.357 169.88 115.875C170.08 116.385 170.18 116.963 170.18 117.609C170.18 119.074 169.679 120.244 168.678 121.118C167.677 121.991 166.303 122.428 164.555 122.428C164.109 122.428 163.691 122.392 163.299 122.319C162.335 122.829 161.852 123.47 161.852 124.244C161.852 124.653 162.021 124.958 162.358 125.158C162.694 125.349 163.272 125.445 164.091 125.445H166.74C168.36 125.445 169.602 125.786 170.467 126.469C171.34 127.152 171.777 128.144 171.777 129.445C171.777 131.101 171.113 132.362 169.784 133.226C168.455 134.1 166.517 134.537 163.968 134.537C162.012 134.537 160.501 134.173 159.436 133.445C158.38 132.717 157.852 131.688 157.852 130.36C157.852 129.45 158.144 128.662 158.726 127.998C159.309 127.334 160.128 126.883 161.183 126.646C160.801 126.473 160.478 126.205 160.214 125.841C159.959 125.477 159.832 125.054 159.832 124.571C159.832 124.025 159.978 123.547 160.269 123.138C160.56 122.728 161.02 122.332 161.648 121.95C160.874 121.632 160.242 121.09 159.75 120.326C159.268 119.561 159.027 118.688 159.027 117.705C159.027 116.066 159.518 114.806 160.501 113.923C161.484 113.031 162.876 112.585 164.678 112.585C165.461 112.585 166.166 112.676 166.794 112.858H171.968ZM160.037 130.332C160.037 131.142 160.378 131.757 161.061 132.175C161.743 132.594 162.722 132.803 163.996 132.803C165.898 132.803 167.304 132.517 168.214 131.943C169.133 131.379 169.593 130.61 169.593 129.636C169.593 128.826 169.343 128.262 168.842 127.943C168.341 127.634 167.4 127.479 166.016 127.479H163.299C162.271 127.479 161.47 127.725 160.897 128.216C160.323 128.708 160.037 129.413 160.037 130.332ZM161.265 117.65C161.265 118.697 161.561 119.488 162.153 120.025C162.744 120.562 163.568 120.831 164.624 120.831C166.835 120.831 167.941 119.757 167.941 117.609C167.941 115.361 166.822 114.237 164.583 114.237C163.518 114.237 162.699 114.524 162.125 115.097C161.552 115.671 161.265 116.521 161.265 117.65ZM184.241 127.82L183.791 125.691H183.681C182.935 126.628 182.189 127.265 181.442 127.602C180.705 127.93 179.782 128.093 178.671 128.093C177.188 128.093 176.023 127.711 175.176 126.947C174.339 126.182 173.92 125.095 173.92 123.684C173.92 120.662 176.337 119.079 181.169 118.933L183.709 118.851V117.923C183.709 116.749 183.454 115.884 182.944 115.329C182.444 114.765 181.638 114.483 180.528 114.483C179.281 114.483 177.87 114.865 176.296 115.63L175.6 113.896C176.337 113.495 177.142 113.181 178.016 112.954C178.899 112.726 179.782 112.613 180.664 112.613C182.448 112.613 183.768 113.008 184.623 113.8C185.488 114.592 185.92 115.862 185.92 117.609V127.82H184.241ZM179.122 126.223C180.532 126.223 181.638 125.836 182.439 125.063C183.249 124.289 183.654 123.206 183.654 121.814V120.462L181.388 120.558C179.586 120.621 178.284 120.904 177.483 121.404C176.692 121.896 176.296 122.665 176.296 123.711C176.296 124.53 176.542 125.154 177.033 125.582C177.534 126.009 178.23 126.223 179.122 126.223ZM196.582 128.093C194.416 128.093 192.737 127.429 191.545 126.1C190.361 124.762 189.77 122.874 189.77 120.435C189.77 117.932 190.371 115.998 191.572 114.633C192.782 113.268 194.502 112.585 196.732 112.585C197.451 112.585 198.17 112.663 198.889 112.817C199.608 112.972 200.172 113.154 200.582 113.363L199.886 115.288C199.385 115.088 198.839 114.924 198.248 114.797C197.656 114.66 197.133 114.592 196.678 114.592C193.638 114.592 192.118 116.531 192.118 120.408C192.118 122.246 192.487 123.657 193.224 124.64C193.97 125.623 195.071 126.114 196.527 126.114C197.774 126.114 199.053 125.846 200.364 125.309V127.315C199.362 127.834 198.102 128.093 196.582 128.093ZM201.551 112.858H203.981L207.258 121.391C207.977 123.338 208.423 124.744 208.595 125.609H208.705C208.823 125.145 209.069 124.353 209.442 123.233C209.824 122.105 211.062 118.647 213.155 112.858H215.585L209.155 129.895C208.518 131.579 207.772 132.771 206.916 133.472C206.07 134.182 205.028 134.537 203.79 134.537C203.098 134.537 202.416 134.46 201.742 134.305V132.489C202.243 132.598 202.803 132.653 203.422 132.653C204.978 132.653 206.088 131.779 206.753 130.032L207.585 127.902L201.551 112.858Z" fill="url(#paint0_linear_696_1286)"/>
<g clip-path="url(#clip0_696_1286)">
<path fill-rule="evenodd" clip-rule="evenodd" d="M46.2811 11.9253C31.8956 26.3733 22.3205 46.6121 20.8421 69.4423C17.8286 116.204 49.9542 156.096 92.5988 158.55L92.2008 164.765C48.2598 162.231 15.1675 121.134 18.2721 72.9511C19.8528 48.4812 30.4627 26.9008 46.2924 11.9253H46.2811Z" fill="#ED923A" fill-opacity="0.3"/>
<path fill-rule="evenodd" clip-rule="evenodd" d="M65.2007 159.915C56.8878 162.632 51.9069 154.892 44.8677 153.666C37.8285 152.439 35.6224 156.67 30.9258 158.206C41.5471 166.749 52.9986 167.242 65.1893 159.915H65.2007Z" fill="#ED923A" fill-opacity="0.3"/>
<path fill-rule="evenodd" clip-rule="evenodd" d="M50.2329 148.746C41.6357 149.572 38.1786 140.834 31.5375 138.048C24.8963 135.261 21.9851 138.942 17.1406 139.412C25.9652 150.202 37.0301 153.241 50.2329 148.746Z" fill="#ED923A" fill-opacity="0.3"/>
<path fill-rule="evenodd" clip-rule="evenodd" d="M34.3158 131.581C26.6284 130.927 24.7406 122.614 19.2594 119.082C13.7667 115.55 10.7191 118.337 6.375 117.97C12.7092 128.967 22.0682 133.45 34.3271 131.581H34.3158Z" fill="#ED923A" fill-opacity="0.3"/>
<path fill-rule="evenodd" clip-rule="evenodd" d="M25.5621 114.965C18.5457 112.683 18.3069 104.508 13.8605 100.013C9.41404 95.5177 6.0707 97.467 2.11328 96.1827C6.00247 107.833 13.8718 114.048 25.5735 114.954L25.5621 114.965Z" fill="#ED923A" fill-opacity="0.3"/>
<path fill-rule="evenodd" clip-rule="evenodd" d="M20.0373 97.9255C13.5098 94.325 14.5788 86.2066 10.9284 80.9204C7.27802 75.6343 3.6845 76.9185 0 74.8889C1.95597 87.1468 8.68814 94.7837 20.0373 97.9255Z" fill="#ED923A" fill-opacity="0.3"/>
<path fill-rule="evenodd" clip-rule="evenodd" d="M18.4053 79.3498C12.7875 74.27 15.4372 66.5644 12.9468 60.51C10.4563 54.4556 6.70358 54.8569 3.53081 51.9902C2.99633 64.466 8.01134 73.5706 18.4053 79.3498Z" fill="#ED923A" fill-opacity="0.3"/>
<path fill-rule="evenodd" clip-rule="evenodd" d="M20.5439 58.5833C16.8821 52.5059 21.0442 46.4974 20.3278 40.4659C19.6227 34.4229 16.268 33.7005 14.1983 30.2605C10.7299 41.0621 12.9019 50.5107 20.5439 58.5833Z" fill="#ED923A" fill-opacity="0.3"/>
<path fill-rule="evenodd" clip-rule="evenodd" d="M24.658 40.9823C23.1 34.6297 28.1719 30.7539 29.1157 25.3417C30.0596 19.9294 27.3986 18.2782 26.523 14.6891C20.8143 22.9107 20.2457 31.6827 24.6693 40.9708L24.658 40.9823Z" fill="#ED923A" fill-opacity="0.3"/>
<path fill-rule="evenodd" clip-rule="evenodd" d="M33.3761 26.6257C32.8303 21.7982 36.8787 19.5278 38.0613 15.675C39.244 11.8222 37.4586 10.3086 37.1516 7.59094C32.2389 12.9803 30.9994 19.3329 33.3648 26.6257H33.3761Z" fill="#ED923A" fill-opacity="0.3"/>
<path fill-rule="evenodd" clip-rule="evenodd" d="M42.0039 14.9411C42.8341 10.7443 46.7801 10.1365 48.7702 7.30424C50.7717 4.47196 49.7027 2.64876 50.169 0.275146C44.6877 3.19916 41.9926 8.11837 42.0039 14.9411Z" fill="#ED923A" fill-opacity="0.3"/>
<path fill-rule="evenodd" clip-rule="evenodd" d="M76.7379 154.009C71.5864 147.898 75.0662 140.662 73.1671 134.149C71.268 127.625 67.4471 127.349 64.5358 123.909C62.705 136.305 66.833 146.338 76.7379 154.021V154.009Z" fill="#ED923A" fill-opacity="0.3"/>
<path fill-rule="evenodd" clip-rule="evenodd" d="M61.7659 146.705C56.7509 140.639 60.3103 133.404 58.5363 126.914C56.7622 120.423 52.9754 120.16 50.1438 116.743C48.131 129.104 52.077 139.091 61.7659 146.705Z" fill="#ED923A" fill-opacity="0.3"/>
<path fill-rule="evenodd" clip-rule="evenodd" d="M45.0549 132.888C41.8139 126.294 46.4991 120.641 46.2489 114.426C45.9988 108.2 42.6554 107.088 40.8245 103.372C36.4691 113.979 37.9475 123.829 45.0549 132.899V132.888Z" fill="#ED923A" fill-opacity="0.3"/>
<path fill-rule="evenodd" clip-rule="evenodd" d="M32.309 115.687C30.535 108.934 35.8798 104.679 36.8009 98.8772C37.7106 93.0751 34.8449 91.3665 33.8328 87.5596C27.8739 96.4577 27.4191 105.86 32.309 115.687Z" fill="#ED923A" fill-opacity="0.3"/>
<path fill-rule="evenodd" clip-rule="evenodd" d="M24.9398 94.6693C24.2461 88.4543 29.4772 85.5303 31.001 80.5652C32.5362 75.6001 30.2391 73.6623 29.8525 70.1534C23.5069 77.0793 21.9035 85.278 24.9398 94.6693Z" fill="#ED923A" fill-opacity="0.3"/>
<path fill-rule="evenodd" clip-rule="evenodd" d="M23.6623 72.8824C24.3674 67.2981 29.4847 66.0597 31.8501 62.1266C34.2154 58.1935 32.6461 55.9231 33.0327 52.7698C26.1073 57.2074 23.0141 63.9383 23.6623 72.8824Z" fill="#ED923A" fill-opacity="0.3"/>
<path fill-rule="evenodd" clip-rule="evenodd" d="M26.7891 52.3915C28.5517 47.7819 33.146 47.9997 35.9776 45.2248C38.7978 42.4384 37.9449 40.0992 38.9343 37.4962C32.1339 39.5717 28.1082 44.5712 26.7891 52.3915Z" fill="#ED923A" fill-opacity="0.3"/>
<path fill-rule="evenodd" clip-rule="evenodd" d="M33.0703 36.7052C35.2423 33.0129 39.177 33.9876 42.02 32.0612C44.8516 30.1348 44.4422 27.9561 45.6704 25.8691C39.5182 26.4998 35.3333 30.1462 33.0703 36.7052Z" fill="#ED923A" fill-opacity="0.3"/>
<path fill-rule="evenodd" clip-rule="evenodd" d="M40.9844 22.7383C43.0427 19.9404 46.1586 21.11 48.6036 19.8143C51.0485 18.5185 50.9007 16.7068 52.0606 15.1244C47.0229 15.0441 43.3384 17.6127 40.9844 22.7268V22.7383Z" fill="#ED923A" fill-opacity="0.3"/>
<path fill-rule="evenodd" clip-rule="evenodd" d="M50.3828 9.78134C52.3502 6.44453 55.8982 7.32746 58.4569 5.58452C61.0155 3.85305 60.6516 1.88078 61.7547 -0.0112305C56.1939 0.550638 52.4184 3.85305 50.3828 9.76987V9.78134Z" fill="#ED923A" fill-opacity="0.3"/>
</g>
<g clip-path="url(#clip1_696_1286)">
<path fill-rule="evenodd" clip-rule="evenodd" d="M262.578 11.9253C276.964 26.3733 286.539 46.6121 288.017 69.4423C291.031 116.204 258.905 156.096 216.261 158.55L216.659 164.765C260.6 162.231 293.692 121.134 290.587 72.9511C289.007 48.4812 278.397 26.9008 262.567 11.9253H262.578Z" fill="#ED923A" fill-opacity="0.3"/>
<path fill-rule="evenodd" clip-rule="evenodd" d="M243.655 159.915C251.968 162.632 256.949 154.892 263.988 153.666C271.027 152.439 273.233 156.67 277.93 158.206C267.308 166.749 255.857 167.242 243.666 159.915H243.655Z" fill="#ED923A" fill-opacity="0.3"/>
<path fill-rule="evenodd" clip-rule="evenodd" d="M258.642 148.746C267.239 149.572 270.696 140.834 277.338 138.048C283.979 135.261 286.89 138.942 291.734 139.412C282.91 150.202 271.845 153.241 258.642 148.746Z" fill="#ED923A" fill-opacity="0.3"/>
<path fill-rule="evenodd" clip-rule="evenodd" d="M274.548 131.58C282.235 130.927 284.123 122.613 289.604 119.082C295.097 115.55 298.144 118.336 302.488 117.969C296.154 128.966 286.795 133.449 274.536 131.58H274.548Z" fill="#ED923A" fill-opacity="0.3"/>
<path fill-rule="evenodd" clip-rule="evenodd" d="M283.301 114.965C290.318 112.683 290.556 104.508 295.003 100.013C299.449 95.5177 302.793 97.467 306.75 96.1827C302.861 107.833 294.991 114.048 283.29 114.954L283.301 114.965Z" fill="#ED923A" fill-opacity="0.3"/>
<path fill-rule="evenodd" clip-rule="evenodd" d="M288.826 97.9255C295.353 94.325 294.285 86.2066 297.935 80.9204C301.585 75.6343 305.179 76.9185 308.863 74.8889C306.907 87.1468 300.175 94.7837 288.826 97.9255Z" fill="#ED923A" fill-opacity="0.3"/>
<path fill-rule="evenodd" clip-rule="evenodd" d="M290.45 79.3498C296.068 74.27 293.418 66.5644 295.909 60.51C298.399 54.4556 302.152 54.8569 305.325 51.9902C305.859 64.466 300.844 73.5706 290.45 79.3498Z" fill="#ED923A" fill-opacity="0.3"/>
<path fill-rule="evenodd" clip-rule="evenodd" d="M288.331 58.5833C291.993 52.5059 287.831 46.4974 288.547 40.4659C289.252 34.4229 292.607 33.7005 294.677 30.2605C298.145 41.0621 295.973 50.5107 288.331 58.5833Z" fill="#ED923A" fill-opacity="0.3"/>
<path fill-rule="evenodd" clip-rule="evenodd" d="M284.201 40.9819C285.759 34.6293 280.687 30.7536 279.744 25.3413C278.8 19.929 281.461 18.2778 282.336 14.6887C288.045 22.9104 288.614 31.6824 284.19 40.9704L284.201 40.9819Z" fill="#ED923A" fill-opacity="0.3"/>
<path fill-rule="evenodd" clip-rule="evenodd" d="M275.487 26.6258C276.033 21.7983 271.985 19.5279 270.802 15.6751C269.619 11.8223 271.405 10.3087 271.712 7.59106C276.624 12.9804 277.864 19.333 275.499 26.6258H275.487Z" fill="#ED923A" fill-opacity="0.3"/>
<path fill-rule="evenodd" clip-rule="evenodd" d="M266.859 14.9414C266.029 10.7446 262.083 10.1369 260.093 7.30461C258.092 4.47233 259.161 2.64912 258.694 0.275513C264.176 3.19952 266.871 8.11874 266.859 14.9414Z" fill="#ED923A" fill-opacity="0.3"/>
<path fill-rule="evenodd" clip-rule="evenodd" d="M232.125 154.009C237.277 147.898 233.797 140.662 235.696 134.149C237.595 127.625 241.416 127.349 244.327 123.909C246.158 136.305 242.03 146.338 232.125 154.021V154.009Z" fill="#ED923A" fill-opacity="0.3"/>
<path fill-rule="evenodd" clip-rule="evenodd" d="M247.093 146.705C252.109 140.639 248.549 133.404 250.323 126.913C252.097 120.423 255.884 120.16 258.716 116.742C260.728 129.104 256.782 139.091 247.093 146.705Z" fill="#ED923A" fill-opacity="0.3"/>
<path fill-rule="evenodd" clip-rule="evenodd" d="M263.812 132.888C267.053 126.294 262.368 120.641 262.618 114.426C262.868 108.2 266.212 107.088 268.043 103.372C272.398 113.979 270.92 123.829 263.812 132.899V132.888Z" fill="#ED923A" fill-opacity="0.3"/>
<path fill-rule="evenodd" clip-rule="evenodd" d="M276.554 115.687C278.328 108.934 272.984 104.679 272.062 98.8772C271.153 93.0751 274.018 91.3665 275.03 87.5596C280.989 96.4577 281.444 105.86 276.554 115.687Z" fill="#ED923A" fill-opacity="0.3"/>
<path fill-rule="evenodd" clip-rule="evenodd" d="M283.923 94.6693C284.617 88.4543 279.386 85.5303 277.862 80.5652C276.327 75.6001 278.624 73.6623 279.011 70.1534C285.356 77.0793 286.96 85.278 283.923 94.6693Z" fill="#ED923A" fill-opacity="0.3"/>
<path fill-rule="evenodd" clip-rule="evenodd" d="M285.213 72.8824C284.508 67.2981 279.39 66.0597 277.025 62.1266C274.66 58.1935 276.229 55.9231 275.842 52.7698C282.768 57.2074 285.861 63.9383 285.213 72.8824Z" fill="#ED923A" fill-opacity="0.3"/>
<path fill-rule="evenodd" clip-rule="evenodd" d="M282.078 52.3915C280.315 47.7819 275.721 47.9997 272.89 45.2248C270.069 42.4384 270.922 40.0992 269.933 37.4962C276.733 39.5717 280.759 44.5712 282.078 52.3915Z" fill="#ED923A" fill-opacity="0.3"/>
<path fill-rule="evenodd" clip-rule="evenodd" d="M275.797 36.7052C273.625 33.0129 269.69 33.9876 266.847 32.0612C264.016 30.1348 264.425 27.9561 263.197 25.8691C269.349 26.4998 273.534 30.1462 275.797 36.7052Z" fill="#ED923A" fill-opacity="0.3"/>
<path fill-rule="evenodd" clip-rule="evenodd" d="M267.879 22.7385C265.821 19.9406 262.705 21.1103 260.26 19.8145C257.815 18.5188 257.963 16.707 256.803 15.1246C261.84 15.0444 265.525 17.6129 267.879 22.7271V22.7385Z" fill="#ED923A" fill-opacity="0.3"/>
<path fill-rule="evenodd" clip-rule="evenodd" d="M258.477 9.78134C256.509 6.44453 252.961 7.32746 250.403 5.58452C247.844 3.85305 248.208 1.88078 247.105 -0.0112305C252.666 0.550638 256.441 3.85305 258.477 9.76987V9.78134Z" fill="#ED923A" fill-opacity="0.3"/>
</g>
<defs>
<linearGradient id="paint0_linear_696_1286" x1="93.0352" y1="82.8204" x2="216.035" y2="82.8204" gradientUnits="userSpaceOnUse">
<stop stop-color="#010E39"/>
<stop offset="1" stop-color="#0344A2"/>
</linearGradient>
<clipPath id="clip0_696_1286">
<rect width="92.59" height="165.052" fill="white"/>
</clipPath>
<clipPath id="clip1_696_1286">
<rect width="92.59" height="165.052" fill="white" transform="matrix(-1 0 0 1 308.863 0)"/>
</clipPath>
</defs>
</svg>
