<svg width="309" height="166" viewBox="0 0 309 166" fill="none" xmlns="http://www.w3.org/2000/svg">
<path d="M131.024 47.4986C132.243 47.4986 133.326 47.7306 134.273 48.1948C135.228 48.6589 135.979 49.3415 136.525 50.2425C137.071 51.1435 137.344 52.2539 137.344 53.5735C137.344 55.0115 137.044 56.2538 136.443 57.3004C135.852 58.3379 134.965 59.1343 133.781 59.6894C132.607 60.2446 131.142 60.5222 129.386 60.5222C128.339 60.5222 127.351 60.4312 126.423 60.2491C125.504 60.0762 124.699 59.8077 124.007 59.4437V55.7987C124.699 56.1628 125.527 56.4722 126.491 56.727C127.465 56.9728 128.38 57.0956 129.235 57.0956C130.073 57.0956 130.778 56.9864 131.351 56.768C131.925 56.5405 132.357 56.1946 132.648 55.7305C132.949 55.2572 133.099 54.6565 133.099 53.9285C133.099 52.9546 132.771 52.2084 132.116 51.6896C131.461 51.1708 130.455 50.9115 129.099 50.9115C128.58 50.9115 128.039 50.9615 127.474 51.0616C126.919 51.1617 126.455 51.2618 126.082 51.362L124.403 50.461L125.154 40.2905H135.979V43.8672H128.853L128.485 47.7852C128.794 47.7215 129.131 47.6578 129.495 47.5941C129.859 47.5304 130.368 47.4986 131.024 47.4986ZM153.604 50.2698C153.604 51.8807 153.476 53.3187 153.221 54.5837C152.976 55.8488 152.575 56.9227 152.02 57.8055C151.474 58.6883 150.755 59.3618 149.863 59.8259C148.971 60.2901 147.888 60.5222 146.614 60.5222C145.012 60.5222 143.697 60.1172 142.669 59.3072C141.64 58.4881 140.88 57.3141 140.389 55.7851C139.897 54.247 139.652 52.4086 139.652 50.2698C139.652 48.1129 139.875 46.2699 140.321 44.7409C140.776 43.2029 141.513 42.0243 142.532 41.2052C143.551 40.3861 144.912 39.9765 146.614 39.9765C148.207 39.9765 149.517 40.3861 150.546 41.2052C151.583 42.0152 152.352 43.1892 152.853 44.7273C153.353 46.2563 153.604 48.1038 153.604 50.2698ZM143.843 50.2698C143.843 51.7897 143.925 53.0593 144.088 54.0786C144.261 55.0888 144.548 55.8488 144.948 56.3584C145.349 56.8681 145.904 57.1229 146.614 57.1229C147.315 57.1229 147.865 56.8727 148.266 56.3721C148.675 55.8624 148.967 55.1025 149.139 54.0923C149.312 53.073 149.399 51.7988 149.399 50.2698C149.399 48.75 149.312 47.4804 149.139 46.461C148.967 45.4417 148.675 44.6772 148.266 44.1676C147.865 43.6488 147.315 43.3894 146.614 43.3894C145.904 43.3894 145.349 43.6488 144.948 44.1676C144.548 44.6772 144.261 45.4417 144.088 46.461C143.925 47.4804 143.843 48.75 143.843 50.2698ZM169.603 50.2698C169.603 51.8807 169.476 53.3187 169.221 54.5837C168.975 55.8488 168.575 56.9227 168.02 57.8055C167.474 58.6883 166.755 59.3618 165.863 59.8259C164.971 60.2901 163.888 60.5222 162.614 60.5222C161.012 60.5222 159.697 60.1172 158.668 59.3072C157.64 58.4881 156.88 57.3141 156.388 55.7851C155.897 54.247 155.651 52.4086 155.651 50.2698C155.651 48.1129 155.874 46.2699 156.32 44.7409C156.775 43.2029 157.512 42.0243 158.532 41.2052C159.551 40.3861 160.912 39.9765 162.614 39.9765C164.206 39.9765 165.517 40.3861 166.545 41.2052C167.583 42.0152 168.352 43.1892 168.852 44.7273C169.353 46.2563 169.603 48.1038 169.603 50.2698ZM159.842 50.2698C159.842 51.7897 159.924 53.0593 160.088 54.0786C160.261 55.0888 160.548 55.8488 160.948 56.3584C161.349 56.8681 161.904 57.1229 162.614 57.1229C163.314 57.1229 163.865 56.8727 164.265 56.3721C164.675 55.8624 164.966 55.1025 165.139 54.0923C165.312 53.073 165.398 51.7988 165.398 50.2698C165.398 48.75 165.312 47.4804 165.139 46.461C164.966 45.4417 164.675 44.6772 164.265 44.1676C163.865 43.6488 163.314 43.3894 162.614 43.3894C161.904 43.3894 161.349 43.6488 160.948 44.1676C160.548 44.6772 160.261 45.4417 160.088 46.461C159.924 47.4804 159.842 48.75 159.842 50.2698ZM180.115 48.9047H185.398V51.8944H180.115V57.1502H177.125V51.8944H171.842V48.9047H177.125V43.5805H180.115V48.9047ZM88.3762 80.1061C88.3762 82.1265 87.6845 83.6828 86.3011 84.7749C84.9269 85.858 82.9565 86.3995 80.39 86.3995H78.0419V94.2491H75.7212V74.2905H80.8951C85.8825 74.2905 88.3762 76.229 88.3762 80.1061ZM78.0419 84.4063H80.1306C82.1875 84.4063 83.6755 84.0742 84.5947 83.4098C85.5139 82.7454 85.9735 81.6806 85.9735 80.2153C85.9735 78.8957 85.5412 77.9127 84.6766 77.2666C83.812 76.6204 82.465 76.2973 80.6357 76.2973H78.0419V84.4063ZM101.427 94.2491L100.977 92.1195H100.867C100.121 93.0569 99.3748 93.694 98.6285 94.0307C97.8913 94.3584 96.9676 94.5222 95.8573 94.5222C94.3738 94.5222 93.2089 94.1399 92.3625 93.3754C91.5252 92.611 91.1065 91.5234 91.1065 90.1127C91.1065 87.0912 93.5228 85.5076 98.3555 85.362L100.895 85.28V84.3517C100.895 83.1777 100.64 82.3131 100.13 81.7579C99.6297 81.1937 98.8242 80.9115 97.7139 80.9115C96.467 80.9115 95.0564 81.2938 93.4819 82.0583L92.7857 80.3245C93.5228 79.9241 94.3283 79.6101 95.202 79.3826C96.0848 79.155 96.9676 79.0413 97.8504 79.0413C99.6342 79.0413 100.954 79.4372 101.809 80.229C102.674 81.0208 103.106 82.2903 103.106 84.0378V94.2491H101.427ZM96.3078 92.6519C97.7184 92.6519 98.8242 92.2651 99.6251 91.4915C100.435 90.7179 100.84 89.6349 100.84 88.2424V86.8909L98.5739 86.9865C96.7719 87.0502 95.4705 87.3323 94.6696 87.8329C93.8778 88.3244 93.4819 89.0934 93.4819 90.14C93.4819 90.9591 93.7276 91.5825 94.2191 92.0103C94.7196 92.438 95.4159 92.6519 96.3078 92.6519ZM114.615 79.014C115.279 79.014 115.875 79.0686 116.403 79.1778L116.089 81.2801C115.47 81.1436 114.924 81.0754 114.451 81.0754C113.24 81.0754 112.203 81.5668 111.338 82.5497C110.483 83.5326 110.055 84.7567 110.055 86.222V94.2491H107.789V79.287H109.659L109.918 82.0583H110.028C110.583 81.0845 111.252 80.3336 112.034 79.8058C112.817 79.2779 113.677 79.014 114.615 79.014ZM124.034 92.6519C124.435 92.6519 124.821 92.6246 125.195 92.57C125.568 92.5063 125.863 92.4426 126.082 92.3789V94.1126C125.836 94.2309 125.472 94.3265 124.99 94.3993C124.517 94.4812 124.089 94.5222 123.707 94.5222C120.812 94.5222 119.365 92.9977 119.365 89.9489V81.0481H117.222V79.9559L119.365 79.014L120.321 75.8195H121.631V79.287H125.973V81.0481H121.631V89.8533C121.631 90.7543 121.845 91.446 122.273 91.9284C122.701 92.4107 123.288 92.6519 124.034 92.6519ZM131.351 94.2491H129.085V79.287H131.351V94.2491ZM128.894 75.2325C128.894 74.7137 129.022 74.336 129.276 74.0994C129.531 73.8537 129.85 73.7308 130.232 73.7308C130.596 73.7308 130.91 73.8537 131.174 74.0994C131.438 74.3451 131.57 74.7228 131.57 75.2325C131.57 75.7421 131.438 76.1244 131.174 76.3792C130.91 76.6249 130.596 76.7478 130.232 76.7478C129.85 76.7478 129.531 76.6249 129.276 76.3792C129.022 76.1244 128.894 75.7421 128.894 75.2325ZM142.136 94.5222C139.97 94.5222 138.291 93.8578 137.099 92.529C135.916 91.1912 135.324 89.3027 135.324 86.8636C135.324 84.3608 135.925 82.4269 137.126 81.0617C138.336 79.6965 140.057 79.014 142.286 79.014C143.005 79.014 143.724 79.0913 144.443 79.246C145.162 79.4008 145.727 79.5828 146.136 79.7921L145.44 81.717C144.939 81.5168 144.393 81.3529 143.802 81.2255C143.21 81.089 142.687 81.0208 142.232 81.0208C139.192 81.0208 137.672 82.9593 137.672 86.8363C137.672 88.6747 138.041 90.0854 138.778 91.0683C139.524 92.0512 140.625 92.5427 142.082 92.5427C143.328 92.5427 144.607 92.2742 145.918 91.7373V93.744C144.917 94.2628 143.656 94.5222 142.136 94.5222ZM151.747 94.2491H149.481V79.287H151.747V94.2491ZM149.29 75.2325C149.29 74.7137 149.417 74.336 149.672 74.0994C149.927 73.8537 150.245 73.7308 150.627 73.7308C150.991 73.7308 151.305 73.8537 151.569 74.0994C151.833 74.3451 151.965 74.7228 151.965 75.2325C151.965 75.7421 151.833 76.1244 151.569 76.3792C151.305 76.6249 150.991 76.7478 150.627 76.7478C150.245 76.7478 149.927 76.6249 149.672 76.3792C149.417 76.1244 149.29 75.7421 149.29 75.2325ZM163.515 94.5222C162.541 94.5222 161.649 94.3447 160.839 93.9898C160.038 93.6257 159.364 93.0706 158.818 92.3243H158.655C158.764 93.198 158.818 94.0262 158.818 94.8089V100.966H156.552V79.287H158.395L158.709 81.3347H158.818C159.401 80.5156 160.079 79.9241 160.852 79.56C161.626 79.196 162.513 79.014 163.515 79.014C165.499 79.014 167.028 79.692 168.101 81.0481C169.185 82.4041 169.726 84.3062 169.726 86.7544C169.726 89.2117 169.175 91.1229 168.074 92.4881C166.982 93.8441 165.462 94.5222 163.515 94.5222ZM163.187 80.9388C161.658 80.9388 160.552 81.362 159.87 82.2084C159.187 83.0548 158.837 84.4018 158.818 86.2493V86.7544C158.818 88.8568 159.169 90.363 159.87 91.2731C160.57 92.1741 161.694 92.6246 163.242 92.6246C164.534 92.6246 165.544 92.1013 166.272 91.0547C167.009 90.0081 167.378 88.5655 167.378 86.7271C167.378 84.8614 167.009 83.4325 166.272 82.4405C165.544 81.4394 164.516 80.9388 163.187 80.9388ZM182.9 94.2491L182.449 92.1195H182.34C181.594 93.0569 180.848 93.694 180.101 94.0307C179.364 94.3584 178.44 94.5222 177.33 94.5222C175.846 94.5222 174.682 94.1399 173.835 93.3754C172.998 92.611 172.579 91.5234 172.579 90.1127C172.579 87.0912 174.996 85.5076 179.828 85.362L182.367 85.28V84.3517C182.367 83.1777 182.113 82.3131 181.603 81.7579C181.102 81.1937 180.297 80.9115 179.187 80.9115C177.94 80.9115 176.529 81.2938 174.955 82.0583L174.258 80.3245C174.996 79.9241 175.801 79.6101 176.675 79.3826C177.557 79.155 178.44 79.0413 179.323 79.0413C181.107 79.0413 182.427 79.4372 183.282 80.229C184.147 81.0208 184.579 82.2903 184.579 84.0378V94.2491H182.9ZM177.78 92.6519C179.191 92.6519 180.297 92.2651 181.098 91.4915C181.908 90.7179 182.313 89.6349 182.313 88.2424V86.8909L180.047 86.9865C178.245 87.0502 176.943 87.3323 176.142 87.8329C175.35 88.3244 174.955 89.0934 174.955 90.14C174.955 90.9591 175.2 91.5825 175.692 92.0103C176.192 92.438 176.889 92.6519 177.78 92.6519ZM194.094 92.6519C194.495 92.6519 194.881 92.6246 195.255 92.57C195.628 92.5063 195.923 92.4426 196.142 92.3789V94.1126C195.896 94.2309 195.532 94.3265 195.05 94.3993C194.576 94.4812 194.149 94.5222 193.766 94.5222C190.872 94.5222 189.425 92.9977 189.425 89.9489V81.0481H187.282V79.9559L189.425 79.014L190.381 75.8195H191.691V79.287H196.033V81.0481H191.691V89.8533C191.691 90.7543 191.905 91.446 192.333 91.9284C192.761 92.4107 193.348 92.6519 194.094 92.6519ZM201.411 94.2491H199.145V79.287H201.411V94.2491ZM198.954 75.2325C198.954 74.7137 199.082 74.336 199.336 74.0994C199.591 73.8537 199.91 73.7308 200.292 73.7308C200.656 73.7308 200.97 73.8537 201.234 74.0994C201.498 74.3451 201.63 74.7228 201.63 75.2325C201.63 75.7421 201.498 76.1244 201.234 76.3792C200.97 76.6249 200.656 76.7478 200.292 76.7478C199.91 76.7478 199.591 76.6249 199.336 76.3792C199.082 76.1244 198.954 75.7421 198.954 75.2325ZM216.455 94.2491V84.5702C216.455 83.3506 216.178 82.4405 215.623 81.8398C215.068 81.2392 214.198 80.9388 213.015 80.9388C211.45 80.9388 210.303 81.362 209.575 82.2084C208.847 83.0548 208.483 84.4519 208.483 86.3995V94.2491H206.217V79.287H208.06L208.428 81.3347H208.538C209.002 80.5976 209.652 80.0287 210.49 79.6283C211.327 79.2187 212.26 79.014 213.288 79.014C215.09 79.014 216.446 79.4508 217.356 80.3245C218.267 81.1891 218.722 82.577 218.722 84.4883V94.2491H216.455ZM235.636 79.287V80.7204L232.865 81.0481C233.119 81.3666 233.347 81.7852 233.547 82.304C233.747 82.8137 233.848 83.3916 233.848 84.0378C233.848 85.503 233.347 86.6725 232.346 87.5462C231.345 88.4199 229.971 88.8568 228.223 88.8568C227.777 88.8568 227.359 88.8204 226.967 88.7476C226.002 89.2572 225.52 89.8988 225.52 90.6724C225.52 91.082 225.688 91.3869 226.025 91.5871C226.362 91.7782 226.94 91.8738 227.759 91.8738H230.407C232.027 91.8738 233.27 92.2151 234.134 92.8976C235.008 93.5802 235.445 94.5722 235.445 95.8737C235.445 97.5301 234.78 98.7906 233.452 99.6552C232.123 100.529 230.184 100.966 227.636 100.966C225.679 100.966 224.169 100.602 223.104 99.8736C222.048 99.1455 221.52 98.1171 221.52 96.7883C221.52 95.8782 221.811 95.091 222.394 94.4266C222.976 93.7622 223.795 93.3117 224.851 93.0751C224.469 92.9022 224.146 92.6337 223.882 92.2697C223.627 91.9056 223.5 91.4824 223.5 91.0001C223.5 90.454 223.645 89.9762 223.937 89.5666C224.228 89.1571 224.687 88.7612 225.315 88.379C224.542 88.0604 223.909 87.5189 223.418 86.7544C222.935 85.9899 222.694 85.1162 222.694 84.1333C222.694 82.4951 223.186 81.2346 224.169 80.3518C225.151 79.4599 226.544 79.014 228.346 79.014C229.129 79.014 229.834 79.105 230.462 79.287H235.636ZM223.704 96.761C223.704 97.571 224.046 98.1854 224.728 98.604C225.411 99.0227 226.389 99.232 227.663 99.232C229.566 99.232 230.972 98.9453 231.882 98.3719C232.801 97.8077 233.261 97.0386 233.261 96.0648C233.261 95.2548 233.01 94.6905 232.51 94.372C232.009 94.0626 231.067 93.9079 229.684 93.9079H226.967C225.939 93.9079 225.138 94.1536 224.564 94.645C223.991 95.1365 223.704 95.8418 223.704 96.761ZM224.933 84.0787C224.933 85.1253 225.229 85.9171 225.82 86.4541C226.412 86.991 227.236 87.2595 228.291 87.2595C230.503 87.2595 231.609 86.1856 231.609 84.0378C231.609 81.7898 230.489 80.6658 228.25 80.6658C227.186 80.6658 226.366 80.9525 225.793 81.5259C225.22 82.0992 224.933 82.9502 224.933 84.0787ZM114.983 122.939C114.983 124.695 114.346 126.065 113.072 127.048C111.798 128.031 110.069 128.522 107.884 128.522C105.518 128.522 103.698 128.217 102.424 127.608V125.369C103.243 125.714 104.135 125.988 105.099 126.188C106.064 126.388 107.02 126.488 107.966 126.488C109.513 126.488 110.678 126.197 111.461 125.614C112.244 125.023 112.635 124.204 112.635 123.157C112.635 122.465 112.494 121.901 112.212 121.464C111.939 121.018 111.475 120.609 110.819 120.236C110.173 119.863 109.186 119.439 107.857 118.966C106 118.302 104.672 117.514 103.871 116.604C103.079 115.694 102.683 114.507 102.683 113.041C102.683 111.503 103.261 110.279 104.417 109.369C105.573 108.459 107.102 108.004 109.004 108.004C110.988 108.004 112.813 108.368 114.478 109.096L113.754 111.116C112.107 110.425 110.505 110.079 108.949 110.079C107.72 110.079 106.76 110.343 106.069 110.871C105.377 111.399 105.031 112.131 105.031 113.069C105.031 113.76 105.159 114.329 105.413 114.775C105.668 115.212 106.096 115.617 106.697 115.99C107.306 116.354 108.235 116.759 109.482 117.205C111.575 117.951 113.013 118.752 113.795 119.608C114.587 120.463 114.983 121.574 114.983 122.939ZM124.703 128.522C122.537 128.522 120.858 127.858 119.666 126.529C118.483 125.191 117.891 123.303 117.891 120.864C117.891 118.361 118.492 116.427 119.693 115.062C120.903 113.697 122.623 113.014 124.853 113.014C125.572 113.014 126.291 113.091 127.01 113.246C127.729 113.401 128.293 113.583 128.703 113.792L128.007 115.717C127.506 115.517 126.96 115.353 126.369 115.226C125.777 115.089 125.254 115.021 124.799 115.021C121.759 115.021 120.239 116.959 120.239 120.836C120.239 122.675 120.608 124.085 121.345 125.068C122.091 126.051 123.192 126.543 124.648 126.543C125.895 126.543 127.174 126.274 128.485 125.737V127.744C127.483 128.263 126.223 128.522 124.703 128.522ZM142.286 128.249V118.57C142.286 117.351 142.009 116.441 141.454 115.84C140.898 115.239 140.029 114.939 138.846 114.939C137.272 114.939 136.12 115.367 135.392 116.222C134.673 117.078 134.314 118.479 134.314 120.427V128.249H132.048V107.007H134.314V113.437C134.314 114.211 134.277 114.852 134.205 115.362H134.341C134.787 114.643 135.42 114.079 136.239 113.669C137.067 113.251 138.009 113.041 139.065 113.041C140.894 113.041 142.264 113.478 143.174 114.352C144.093 115.216 144.552 116.595 144.552 118.488V128.249H142.286ZM162.136 120.754C162.136 123.194 161.521 125.1 160.293 126.474C159.064 127.84 157.367 128.522 155.201 128.522C153.863 128.522 152.675 128.208 151.638 127.58C150.6 126.952 149.799 126.051 149.235 124.877C148.671 123.703 148.389 122.329 148.389 120.754C148.389 118.315 148.998 116.418 150.218 115.062C151.437 113.697 153.13 113.014 155.296 113.014C157.39 113.014 159.05 113.71 160.279 115.103C161.517 116.495 162.136 118.379 162.136 120.754ZM150.737 120.754C150.737 122.666 151.119 124.122 151.883 125.123C152.648 126.124 153.772 126.625 155.255 126.625C156.739 126.625 157.863 126.129 158.627 125.137C159.401 124.135 159.788 122.675 159.788 120.754C159.788 118.852 159.401 117.41 158.627 116.427C157.863 115.435 156.73 114.939 155.228 114.939C153.745 114.939 152.625 115.426 151.87 116.4C151.114 117.373 150.737 118.825 150.737 120.754ZM179.036 120.754C179.036 123.194 178.422 125.1 177.193 126.474C175.965 127.84 174.267 128.522 172.101 128.522C170.764 128.522 169.576 128.208 168.538 127.58C167.501 126.952 166.7 126.051 166.136 124.877C165.571 123.703 165.289 122.329 165.289 120.754C165.289 118.315 165.899 116.418 167.119 115.062C168.338 113.697 170.031 113.014 172.197 113.014C174.29 113.014 175.951 113.71 177.18 115.103C178.418 116.495 179.036 118.379 179.036 120.754ZM167.637 120.754C167.637 122.666 168.02 124.122 168.784 125.123C169.549 126.124 170.673 126.625 172.156 126.625C173.639 126.625 174.763 126.129 175.528 125.137C176.302 124.135 176.688 122.675 176.688 120.754C176.688 118.852 176.302 117.41 175.528 116.427C174.763 115.435 173.63 114.939 172.129 114.939C170.645 114.939 169.526 115.426 168.77 116.4C168.015 117.373 167.637 118.825 167.637 120.754ZM185.289 128.249H183.023V107.007H185.289V128.249ZM199.746 124.167C199.746 125.56 199.227 126.634 198.19 127.389C197.152 128.144 195.696 128.522 193.821 128.522C191.837 128.522 190.29 128.208 189.18 127.58V125.478C189.899 125.842 190.668 126.129 191.487 126.338C192.315 126.547 193.111 126.652 193.876 126.652C195.059 126.652 195.969 126.465 196.606 126.092C197.243 125.71 197.562 125.132 197.562 124.358C197.562 123.776 197.307 123.28 196.797 122.87C196.297 122.452 195.314 121.96 193.848 121.396C192.456 120.877 191.464 120.427 190.872 120.045C190.29 119.653 189.853 119.212 189.562 118.72C189.28 118.229 189.139 117.642 189.139 116.959C189.139 115.74 189.635 114.78 190.627 114.079C191.619 113.369 192.979 113.014 194.708 113.014C196.319 113.014 197.894 113.342 199.432 113.997L198.626 115.84C197.125 115.221 195.764 114.912 194.545 114.912C193.471 114.912 192.661 115.08 192.115 115.417C191.569 115.753 191.296 116.218 191.296 116.809C191.296 117.21 191.396 117.551 191.596 117.833C191.805 118.115 192.137 118.384 192.592 118.638C193.048 118.893 193.921 119.262 195.214 119.744C196.988 120.39 198.185 121.041 198.804 121.696C199.432 122.352 199.746 123.175 199.746 124.167Z" fill="url(#paint0_linear_696_1333)"/>
<g clip-path="url(#clip0_696_1333)">
<path fill-rule="evenodd" clip-rule="evenodd" d="M46.2811 11.9253C31.8956 26.3733 22.3205 46.6121 20.8421 69.4423C17.8286 116.204 49.9542 156.096 92.5988 158.55L92.2008 164.765C48.2598 162.231 15.1675 121.134 18.2721 72.9511C19.8528 48.4812 30.4627 26.9008 46.2924 11.9253H46.2811Z" fill="#ED923A" fill-opacity="0.3"/>
<path fill-rule="evenodd" clip-rule="evenodd" d="M65.2046 159.915C56.8917 162.632 51.9108 154.892 44.8716 153.665C37.8324 152.438 35.6263 156.669 30.9297 158.206C41.551 166.749 53.0026 167.242 65.1932 159.915H65.2046Z" fill="#ED923A" fill-opacity="0.3"/>
<path fill-rule="evenodd" clip-rule="evenodd" d="M50.2251 148.746C41.6279 149.572 38.1708 140.834 31.5296 138.048C24.8885 135.262 21.9772 138.942 17.1328 139.413C25.9574 150.203 37.0223 153.241 50.2251 148.746Z" fill="#ED923A" fill-opacity="0.3"/>
<path fill-rule="evenodd" clip-rule="evenodd" d="M34.3197 131.581C26.6323 130.927 24.7445 122.614 19.2633 119.082C13.7706 115.55 10.723 118.337 6.37891 117.97C12.7131 128.966 22.0721 133.45 34.331 131.581H34.3197Z" fill="#ED923A" fill-opacity="0.3"/>
<path fill-rule="evenodd" clip-rule="evenodd" d="M25.5621 114.965C18.5457 112.683 18.3069 104.508 13.8605 100.013C9.41404 95.5178 6.0707 97.4671 2.11328 96.1829C6.00247 107.833 13.8718 114.048 25.5735 114.954L25.5621 114.965Z" fill="#ED923A" fill-opacity="0.3"/>
<path fill-rule="evenodd" clip-rule="evenodd" d="M20.0373 97.9255C13.5098 94.325 14.5788 86.2066 10.9284 80.9204C7.27802 75.6343 3.6845 76.9185 0 74.8889C1.95597 87.1468 8.68814 94.7837 20.0373 97.9255Z" fill="#ED923A" fill-opacity="0.3"/>
<path fill-rule="evenodd" clip-rule="evenodd" d="M18.4053 79.3498C12.7875 74.27 15.4372 66.5644 12.9468 60.51C10.4563 54.4556 6.70358 54.8569 3.53081 51.9902C2.99633 64.466 8.01134 73.5706 18.4053 79.3498Z" fill="#ED923A" fill-opacity="0.3"/>
<path fill-rule="evenodd" clip-rule="evenodd" d="M20.5322 58.5833C16.8704 52.5059 21.0325 46.4974 20.3161 40.4659C19.611 34.4229 16.2563 33.7005 14.1866 30.2605C10.7182 41.0621 12.8902 50.5107 20.5322 58.5833Z" fill="#ED923A" fill-opacity="0.3"/>
<path fill-rule="evenodd" clip-rule="evenodd" d="M24.658 40.9823C23.1 34.6297 28.1719 30.7539 29.1157 25.3417C30.0596 19.9294 27.3986 18.2782 26.523 14.6891C20.8143 22.9107 20.2457 31.6827 24.6693 40.9708L24.658 40.9823Z" fill="#ED923A" fill-opacity="0.3"/>
<path fill-rule="evenodd" clip-rule="evenodd" d="M33.3761 26.6257C32.8303 21.7982 36.8787 19.5278 38.0613 15.675C39.244 11.8222 37.4586 10.3086 37.1516 7.59094C32.2389 12.9803 30.9994 19.3329 33.3648 26.6257H33.3761Z" fill="#ED923A" fill-opacity="0.3"/>
<path fill-rule="evenodd" clip-rule="evenodd" d="M42.0039 14.9411C42.8341 10.7443 46.7801 10.1365 48.7702 7.30424C50.7717 4.47196 49.7027 2.64876 50.169 0.275146C44.6877 3.19916 41.9926 8.11837 42.0039 14.9411Z" fill="#ED923A" fill-opacity="0.3"/>
<path fill-rule="evenodd" clip-rule="evenodd" d="M76.7379 154.009C71.5864 147.898 75.0662 140.662 73.1671 134.149C71.268 127.625 67.4471 127.349 64.5358 123.909C62.705 136.305 66.833 146.338 76.7379 154.021V154.009Z" fill="#ED923A" fill-opacity="0.3"/>
<path fill-rule="evenodd" clip-rule="evenodd" d="M61.7659 146.705C56.7509 140.639 60.3103 133.404 58.5363 126.913C56.7622 120.423 52.9754 120.16 50.1438 116.742C48.131 129.104 52.077 139.091 61.7659 146.705Z" fill="#ED923A" fill-opacity="0.3"/>
<path fill-rule="evenodd" clip-rule="evenodd" d="M45.0471 132.888C41.8061 126.294 46.4913 120.641 46.2411 114.426C45.9909 108.2 42.6476 107.088 40.8167 103.372C36.4613 113.979 37.9396 123.829 45.0471 132.899V132.888Z" fill="#ED923A" fill-opacity="0.3"/>
<path fill-rule="evenodd" clip-rule="evenodd" d="M32.309 115.687C30.535 108.934 35.8798 104.679 36.8009 98.8772C37.7106 93.0751 34.8449 91.3665 33.8328 87.5596C27.8739 96.4577 27.4191 105.86 32.309 115.687Z" fill="#ED923A" fill-opacity="0.3"/>
<path fill-rule="evenodd" clip-rule="evenodd" d="M24.9398 94.6693C24.2461 88.4543 29.4772 85.5303 31.001 80.5652C32.5362 75.6001 30.2391 73.6623 29.8525 70.1534C23.5069 77.0793 21.9035 85.278 24.9398 94.6693Z" fill="#ED923A" fill-opacity="0.3"/>
<path fill-rule="evenodd" clip-rule="evenodd" d="M23.6506 72.8824C24.3556 67.2981 29.473 66.0597 31.8383 62.1266C34.2037 58.1935 32.6344 55.9231 33.021 52.7698C26.0955 57.2074 23.0024 63.9383 23.6506 72.8824Z" fill="#ED923A" fill-opacity="0.3"/>
<path fill-rule="evenodd" clip-rule="evenodd" d="M26.7852 52.3915C28.5478 47.7819 33.1421 47.9997 35.9737 45.2248C38.7939 42.4384 37.941 40.0992 38.9304 37.4962C32.13 39.5717 28.1043 44.5712 26.7852 52.3915Z" fill="#ED923A" fill-opacity="0.3"/>
<path fill-rule="evenodd" clip-rule="evenodd" d="M33.0664 36.7052C35.2384 33.0129 39.1731 33.9876 42.0161 32.0612C44.8477 30.1348 44.4383 27.9561 45.6665 25.8691C39.5143 26.4998 35.3294 30.1462 33.0664 36.7052Z" fill="#ED923A" fill-opacity="0.3"/>
<path fill-rule="evenodd" clip-rule="evenodd" d="M40.9766 22.7383C43.0349 19.9404 46.1508 21.11 48.5957 19.8143C51.0407 18.5185 50.8929 16.7068 52.0528 15.1244C47.015 15.0441 43.3305 17.6127 40.9766 22.7268V22.7383Z" fill="#ED923A" fill-opacity="0.3"/>
<path fill-rule="evenodd" clip-rule="evenodd" d="M50.3828 9.78134C52.3502 6.44453 55.8982 7.32746 58.4569 5.58452C61.0155 3.85305 60.6516 1.88078 61.7547 -0.0112305C56.1939 0.550638 52.4184 3.85305 50.3828 9.76987V9.78134Z" fill="#ED923A" fill-opacity="0.3"/>
</g>
<g clip-path="url(#clip1_696_1333)">
<path fill-rule="evenodd" clip-rule="evenodd" d="M262.578 11.9253C276.964 26.3733 286.539 46.6121 288.017 69.4423C291.031 116.204 258.905 156.096 216.261 158.55L216.659 164.765C260.6 162.231 293.692 121.134 290.587 72.9511C289.007 48.4812 278.397 26.9008 262.567 11.9253H262.578Z" fill="#ED923A" fill-opacity="0.3"/>
<path fill-rule="evenodd" clip-rule="evenodd" d="M243.655 159.915C251.968 162.632 256.949 154.892 263.988 153.665C271.027 152.438 273.233 156.669 277.93 158.206C267.308 166.749 255.857 167.242 243.666 159.915H243.655Z" fill="#ED923A" fill-opacity="0.3"/>
<path fill-rule="evenodd" clip-rule="evenodd" d="M258.63 148.746C267.228 149.572 270.685 140.834 277.326 138.048C283.967 135.262 286.878 138.942 291.723 139.413C282.898 150.203 271.833 153.241 258.63 148.746Z" fill="#ED923A" fill-opacity="0.3"/>
<path fill-rule="evenodd" clip-rule="evenodd" d="M274.548 131.58C282.235 130.926 284.123 122.613 289.604 119.081C295.097 115.55 298.144 118.336 302.488 117.969C296.154 128.966 286.795 133.449 274.536 131.58H274.548Z" fill="#ED923A" fill-opacity="0.3"/>
<path fill-rule="evenodd" clip-rule="evenodd" d="M283.301 114.965C290.318 112.683 290.556 104.508 295.003 100.013C299.449 95.5178 302.793 97.4671 306.75 96.1829C302.861 107.833 294.991 114.048 283.29 114.954L283.301 114.965Z" fill="#ED923A" fill-opacity="0.3"/>
<path fill-rule="evenodd" clip-rule="evenodd" d="M288.826 97.9255C295.353 94.325 294.285 86.2066 297.935 80.9204C301.585 75.6343 305.179 76.9185 308.863 74.8889C306.907 87.1468 300.175 94.7837 288.826 97.9255Z" fill="#ED923A" fill-opacity="0.3"/>
<path fill-rule="evenodd" clip-rule="evenodd" d="M290.45 79.3498C296.068 74.27 293.418 66.5644 295.909 60.51C298.399 54.4556 302.152 54.8569 305.325 51.9902C305.859 64.466 300.844 73.5706 290.45 79.3498Z" fill="#ED923A" fill-opacity="0.3"/>
<path fill-rule="evenodd" clip-rule="evenodd" d="M288.323 58.5833C291.985 52.5059 287.823 46.4974 288.539 40.4659C289.244 34.4229 292.599 33.7005 294.669 30.2605C298.137 41.0621 295.965 50.5107 288.323 58.5833Z" fill="#ED923A" fill-opacity="0.3"/>
<path fill-rule="evenodd" clip-rule="evenodd" d="M284.201 40.9819C285.759 34.6293 280.687 30.7536 279.744 25.3413C278.8 19.929 281.461 18.2778 282.336 14.6887C288.045 22.9104 288.614 31.6824 284.19 40.9704L284.201 40.9819Z" fill="#ED923A" fill-opacity="0.3"/>
<path fill-rule="evenodd" clip-rule="evenodd" d="M275.487 26.6258C276.033 21.7983 271.985 19.5279 270.802 15.6751C269.619 11.8223 271.405 10.3087 271.712 7.59106C276.624 12.9804 277.864 19.333 275.499 26.6258H275.487Z" fill="#ED923A" fill-opacity="0.3"/>
<path fill-rule="evenodd" clip-rule="evenodd" d="M266.859 14.9414C266.029 10.7446 262.083 10.1369 260.093 7.30461C258.092 4.47233 259.161 2.64912 258.694 0.275513C264.176 3.19952 266.871 8.11874 266.859 14.9414Z" fill="#ED923A" fill-opacity="0.3"/>
<path fill-rule="evenodd" clip-rule="evenodd" d="M232.129 154.009C237.281 147.898 233.801 140.662 235.7 134.149C237.599 127.625 241.42 127.349 244.331 123.909C246.162 136.305 242.034 146.338 232.129 154.021V154.009Z" fill="#ED923A" fill-opacity="0.3"/>
<path fill-rule="evenodd" clip-rule="evenodd" d="M247.093 146.705C252.109 140.639 248.549 133.404 250.323 126.913C252.097 120.423 255.884 120.16 258.716 116.742C260.728 129.104 256.782 139.091 247.093 146.705Z" fill="#ED923A" fill-opacity="0.3"/>
<path fill-rule="evenodd" clip-rule="evenodd" d="M263.808 132.888C267.049 126.294 262.364 120.641 262.614 114.426C262.865 108.2 266.208 107.088 268.039 103.372C272.394 113.979 270.916 123.829 263.808 132.899V132.888Z" fill="#ED923A" fill-opacity="0.3"/>
<path fill-rule="evenodd" clip-rule="evenodd" d="M276.554 115.687C278.328 108.934 272.984 104.679 272.062 98.8772C271.153 93.0751 274.018 91.3665 275.03 87.5596C280.989 96.4577 281.444 105.86 276.554 115.687Z" fill="#ED923A" fill-opacity="0.3"/>
<path fill-rule="evenodd" clip-rule="evenodd" d="M283.92 94.6693C284.613 88.4543 279.382 85.5303 277.858 80.5652C276.323 75.6001 278.62 73.6623 279.007 70.1534C285.352 77.0793 286.956 85.278 283.92 94.6693Z" fill="#ED923A" fill-opacity="0.3"/>
<path fill-rule="evenodd" clip-rule="evenodd" d="M285.201 72.8824C284.496 67.2981 279.379 66.0597 277.013 62.1266C274.648 58.1935 276.217 55.9231 275.831 52.7698C282.756 57.2074 285.849 63.9383 285.201 72.8824Z" fill="#ED923A" fill-opacity="0.3"/>
<path fill-rule="evenodd" clip-rule="evenodd" d="M282.07 52.3915C280.308 47.7819 275.713 47.9997 272.882 45.2248C270.062 42.4384 270.914 40.0992 269.925 37.4962C276.726 39.5717 280.751 44.5712 282.07 52.3915Z" fill="#ED923A" fill-opacity="0.3"/>
<path fill-rule="evenodd" clip-rule="evenodd" d="M275.801 36.7052C273.629 33.0129 269.694 33.9876 266.851 32.0612C264.019 30.1348 264.429 27.9561 263.201 25.8691C269.353 26.4998 273.538 30.1462 275.801 36.7052Z" fill="#ED923A" fill-opacity="0.3"/>
<path fill-rule="evenodd" clip-rule="evenodd" d="M267.879 22.7385C265.821 19.9406 262.705 21.1103 260.26 19.8145C257.815 18.5188 257.963 16.707 256.803 15.1246C261.84 15.0444 265.525 17.6129 267.879 22.7271V22.7385Z" fill="#ED923A" fill-opacity="0.3"/>
<path fill-rule="evenodd" clip-rule="evenodd" d="M258.477 9.78134C256.509 6.44453 252.961 7.32746 250.403 5.58452C247.844 3.85305 248.208 1.88078 247.105 -0.0112305C252.666 0.550638 256.441 3.85305 258.477 9.76987V9.78134Z" fill="#ED923A" fill-opacity="0.3"/>
</g>
<defs>
<linearGradient id="paint0_linear_696_1333" x1="68.1445" y1="83.2491" x2="241.138" y2="83.2491" gradientUnits="userSpaceOnUse">
<stop stop-color="#010E39"/>
<stop offset="1" stop-color="#0344A2"/>
</linearGradient>
<clipPath id="clip0_696_1333">
<rect width="92.59" height="165.052" fill="white"/>
</clipPath>
<clipPath id="clip1_696_1333">
<rect width="92.59" height="165.052" fill="white" transform="matrix(-1 0 0 1 308.863 0)"/>
</clipPath>
</defs>
</svg>
