<svg width="309" height="166" viewBox="0 0 309 166" fill="none" xmlns="http://www.w3.org/2000/svg">
<path d="M107.488 60.1798H103.269V48.6306C103.269 48.312 103.274 47.9207 103.283 47.4565C103.292 46.9833 103.306 46.5009 103.324 46.0095C103.342 45.5089 103.36 45.0584 103.379 44.6579C103.278 44.7763 103.074 44.981 102.764 45.2723C102.464 45.5544 102.182 45.8092 101.918 46.0368L99.6243 47.8797L97.5902 45.3405L104.02 40.2212H107.488V60.1798ZM115.037 60.1798L122.532 43.7706H112.689V40.2212H127.009V42.8696L119.46 60.1798H115.037ZM146.19 43.4566C145.38 43.4566 144.661 43.6159 144.033 43.9344C143.414 44.2438 142.891 44.6944 142.463 45.2859C142.044 45.8775 141.726 46.5919 141.507 47.4292C141.289 48.2665 141.18 49.2085 141.18 50.2551C141.18 51.6658 141.353 52.8717 141.699 53.8728C142.053 54.8648 142.6 55.6247 143.337 56.1526C144.074 56.6714 145.025 56.9307 146.19 56.9307C147 56.9307 147.81 56.8397 148.62 56.6577C149.439 56.4757 150.326 56.2163 151.282 55.8796V59.429C150.399 59.793 149.53 60.0524 148.674 60.2071C147.819 60.3709 146.859 60.4528 145.794 60.4528C143.737 60.4528 142.044 60.0296 140.716 59.1832C139.396 58.3277 138.418 57.1355 137.781 55.6065C137.143 54.0684 136.825 52.2755 136.825 50.2278C136.825 48.717 137.03 47.3337 137.439 46.0777C137.849 44.8218 138.449 43.7342 139.241 42.815C140.033 41.8958 141.011 41.1859 142.176 40.6853C143.341 40.1848 144.679 39.9345 146.19 39.9345C147.182 39.9345 148.174 40.0619 149.166 40.3167C150.167 40.5625 151.123 40.9038 152.033 41.3406L150.668 44.7808C149.921 44.4259 149.171 44.1164 148.415 43.8525C147.66 43.5886 146.918 43.4566 146.19 43.4566ZM159.377 44.9173V60.1798H155.214V44.9173H159.377ZM157.302 38.9379C157.921 38.9379 158.454 39.0835 158.9 39.3748C159.345 39.6569 159.568 40.1893 159.568 40.972C159.568 41.7456 159.345 42.2826 158.9 42.5829C158.454 42.8741 157.921 43.0198 157.302 43.0198C156.674 43.0198 156.137 42.8741 155.691 42.5829C155.255 42.2826 155.036 41.7456 155.036 40.972C155.036 40.1893 155.255 39.6569 155.691 39.3748C156.137 39.0835 156.674 38.9379 157.302 38.9379ZM170.189 57.1355C170.644 57.1355 171.086 57.09 171.514 56.999C171.95 56.908 172.383 56.7942 172.811 56.6577V59.7566C172.365 59.9568 171.809 60.1207 171.145 60.2481C170.49 60.3846 169.771 60.4528 168.988 60.4528C168.078 60.4528 167.259 60.3072 166.531 60.016C165.812 59.7157 165.243 59.2014 164.824 58.4734C164.415 57.7362 164.21 56.7123 164.21 55.4018V48.0435H162.217V46.2825L164.51 44.89L165.712 41.6682H168.374V44.9173H172.647V48.0435H168.374V55.4018C168.374 55.9842 168.538 56.4211 168.865 56.7123C169.202 56.9944 169.643 57.1355 170.189 57.1355ZM180.073 44.9173V60.1798H175.909V44.9173H180.073ZM177.998 38.9379C178.617 38.9379 179.149 39.0835 179.595 39.3748C180.041 39.6569 180.264 40.1893 180.264 40.972C180.264 41.7456 180.041 42.2826 179.595 42.5829C179.149 42.8741 178.617 43.0198 177.998 43.0198C177.37 43.0198 176.833 42.8741 176.387 42.5829C175.95 42.2826 175.732 41.7456 175.732 40.972C175.732 40.1893 175.95 39.6569 176.387 39.3748C176.833 39.0835 177.37 38.9379 177.998 38.9379ZM190.749 44.6306C192.159 44.6306 193.374 44.9037 194.394 45.4497C195.413 45.9867 196.2 46.7694 196.755 47.7978C197.311 48.8262 197.588 50.0822 197.588 51.5657V53.5861H187.745C187.791 54.7601 188.141 55.6839 188.797 56.3574C189.461 57.0217 190.38 57.3539 191.554 57.3539C192.528 57.3539 193.42 57.2538 194.23 57.0536C195.04 56.8534 195.873 56.553 196.728 56.1526V59.3744C195.973 59.7475 195.181 60.0205 194.353 60.1935C193.534 60.3664 192.537 60.4528 191.363 60.4528C189.834 60.4528 188.478 60.1707 187.295 59.6064C186.121 59.0422 185.197 58.1821 184.524 57.0263C183.859 55.8705 183.527 54.4143 183.527 52.6578C183.527 50.874 183.827 49.3905 184.428 48.2074C185.038 47.0151 185.884 46.1232 186.967 45.5316C188.05 44.931 189.311 44.6306 190.749 44.6306ZM190.776 47.593C189.966 47.593 189.293 47.8524 188.756 48.3712C188.228 48.8899 187.923 49.7045 187.841 50.8148H193.684C193.675 50.1959 193.561 49.6453 193.343 49.163C193.133 48.6806 192.815 48.2984 192.387 48.0162C191.968 47.7341 191.431 47.593 190.776 47.593ZM211.622 55.6475C211.622 56.685 211.376 57.5633 210.885 58.2822C210.402 58.9921 209.679 59.5336 208.714 59.9068C207.749 60.2708 206.548 60.4528 205.11 60.4528C204.045 60.4528 203.131 60.3846 202.366 60.2481C201.611 60.1116 200.846 59.884 200.073 59.5655V56.1253C200.901 56.4984 201.788 56.8079 202.735 57.0536C203.69 57.2902 204.528 57.4085 205.247 57.4085C206.057 57.4085 206.635 57.2902 206.98 57.0536C207.335 56.8079 207.513 56.4893 207.513 56.098C207.513 55.8432 207.44 55.6156 207.294 55.4154C207.158 55.2061 206.858 54.974 206.393 54.7192C205.929 54.4552 205.201 54.114 204.209 53.6953C203.254 53.2949 202.466 52.8899 201.847 52.4803C201.238 52.0708 200.783 51.5884 200.482 51.0332C200.191 50.469 200.045 49.7545 200.045 48.8899C200.045 47.4793 200.592 46.419 201.684 45.7091C202.785 44.9901 204.255 44.6306 206.093 44.6306C207.04 44.6306 207.941 44.7262 208.796 44.9173C209.661 45.1085 210.548 45.4133 211.458 45.832L210.202 48.8353C209.447 48.5077 208.732 48.2392 208.059 48.0299C207.395 47.8206 206.717 47.7159 206.025 47.7159C205.415 47.7159 204.955 47.7978 204.646 47.9616C204.337 48.1255 204.182 48.3757 204.182 48.7125C204.182 48.9582 204.259 49.1766 204.414 49.3677C204.578 49.5589 204.887 49.7727 205.342 50.0094C205.806 50.2369 206.484 50.5327 207.376 50.8967C208.241 51.2517 208.992 51.6248 209.629 52.0162C210.266 52.3984 210.757 52.8762 211.103 53.4496C211.449 54.0138 211.622 54.7465 211.622 55.6475ZM101.522 94.1798L99.0646 87.8455H91.0648L88.6211 94.1798H86.2731L94.0818 74.1393H96.1705L103.925 94.1798H101.522ZM98.3684 85.7841L96.0339 79.4907C95.9793 79.3269 95.8883 79.0584 95.7609 78.6853C95.6426 78.3121 95.5197 77.9253 95.3923 77.5249C95.2649 77.1244 95.1602 76.8013 95.0783 76.5556C94.9873 76.9287 94.8872 77.3019 94.778 77.675C94.6779 78.0391 94.5778 78.3804 94.4777 78.6989C94.3776 79.0083 94.2911 79.2723 94.2183 79.4907L91.8429 85.7841H98.3684ZM112.348 94.4528C111.001 94.4528 109.813 94.1753 108.785 93.6201C107.756 93.0649 106.955 92.2185 106.382 91.0809C105.808 89.9433 105.522 88.5098 105.522 86.7806C105.522 84.9695 105.822 83.4906 106.423 82.3439C107.033 81.188 107.87 80.3325 108.935 79.7774C110 79.2222 111.21 78.9446 112.566 78.9446C113.312 78.9446 114.031 79.022 114.723 79.1767C115.424 79.3223 115.997 79.5089 116.443 79.7364L115.76 81.634C115.305 81.452 114.778 81.2882 114.177 81.1425C113.585 80.9969 113.03 80.9241 112.511 80.9241C111.474 80.9241 110.609 81.1471 109.918 81.593C109.235 82.039 108.721 82.6943 108.375 83.5589C108.038 84.4235 107.87 85.4883 107.87 86.7533C107.87 87.9638 108.034 88.9968 108.361 89.8523C108.698 90.7078 109.194 91.363 109.849 91.8181C110.514 92.264 111.342 92.487 112.334 92.487C113.126 92.487 113.84 92.4051 114.477 92.2413C115.114 92.0684 115.692 91.8681 116.211 91.6406V93.661C115.71 93.9159 115.151 94.1116 114.532 94.2481C113.922 94.3846 113.194 94.4528 112.348 94.4528ZM126.559 78.9446C126.859 78.9446 127.173 78.9628 127.501 78.9992C127.829 79.0265 128.12 79.0675 128.375 79.1221L128.088 81.2244C127.842 81.1607 127.569 81.1107 127.269 81.0743C126.968 81.0379 126.686 81.0197 126.422 81.0197C125.822 81.0197 125.253 81.1425 124.716 81.3883C124.188 81.6249 123.724 81.9707 123.323 82.4258C122.923 82.8717 122.609 83.4133 122.382 84.0503C122.154 84.6783 122.04 85.3791 122.04 86.1527V94.1798H119.76V79.2177H121.644L121.89 81.9753H121.986C122.295 81.4201 122.668 80.915 123.105 80.46C123.542 79.9958 124.047 79.6272 124.62 79.3542C125.203 79.0811 125.849 78.9446 126.559 78.9446ZM144.101 86.6714C144.101 87.9001 143.942 88.9968 143.623 89.9615C143.305 90.9262 142.845 91.7407 142.245 92.4051C141.644 93.0695 140.916 93.5791 140.06 93.9341C139.214 94.2799 138.254 94.4528 137.18 94.4528C136.179 94.4528 135.26 94.2799 134.422 93.9341C133.594 93.5791 132.875 93.0695 132.265 92.4051C131.665 91.7407 131.196 90.9262 130.859 89.9615C130.532 88.9968 130.368 87.9001 130.368 86.6714C130.368 85.0332 130.645 83.6408 131.2 82.494C131.756 81.3382 132.547 80.46 133.576 79.8593C134.613 79.2495 135.847 78.9446 137.275 78.9446C138.641 78.9446 139.833 79.2495 140.852 79.8593C141.881 80.4691 142.677 81.3519 143.241 82.5077C143.815 83.6544 144.101 85.0423 144.101 86.6714ZM132.716 86.6714C132.716 87.8728 132.875 88.9148 133.194 89.7976C133.512 90.6805 134.004 91.363 134.668 91.8454C135.332 92.3277 136.188 92.5689 137.234 92.5689C138.272 92.5689 139.123 92.3277 139.787 91.8454C140.461 91.363 140.957 90.6805 141.275 89.7976C141.594 88.9148 141.753 87.8728 141.753 86.6714C141.753 85.4792 141.594 84.4508 141.275 83.5862C140.957 82.7125 140.465 82.039 139.801 81.5657C139.137 81.0925 138.277 80.8559 137.221 80.8559C135.665 80.8559 134.522 81.3701 133.794 82.3985C133.075 83.4269 132.716 84.8512 132.716 86.6714ZM157.698 90.0843C157.698 91.0399 157.457 91.8454 156.975 92.5007C156.501 93.1468 155.819 93.6337 154.927 93.9614C154.044 94.289 152.988 94.4528 151.76 94.4528C150.713 94.4528 149.808 94.3709 149.043 94.2071C148.279 94.0433 147.61 93.8112 147.036 93.5109V91.4222C147.646 91.7225 148.374 91.9956 149.221 92.2413C150.067 92.487 150.932 92.6099 151.814 92.6099C153.107 92.6099 154.044 92.4006 154.627 91.9819C155.209 91.5633 155.5 90.9944 155.5 90.2755C155.5 89.8659 155.382 89.5064 155.145 89.197C154.918 88.8784 154.531 88.5736 153.985 88.2823C153.439 87.982 152.684 87.6543 151.719 87.2994C150.763 86.9354 149.935 86.5759 149.234 86.2209C148.543 85.8569 148.006 85.4155 147.623 84.8967C147.25 84.378 147.064 83.7045 147.064 82.8763C147.064 81.6112 147.573 80.642 148.593 79.9685C149.621 79.2859 150.968 78.9446 152.633 78.9446C153.534 78.9446 154.376 79.0356 155.159 79.2177C155.951 79.3906 156.688 79.6272 157.371 79.9275L156.606 81.7432C155.987 81.4793 155.327 81.2563 154.627 81.0743C153.926 80.8923 153.211 80.8012 152.483 80.8012C151.437 80.8012 150.631 80.9742 150.067 81.32C149.512 81.6658 149.234 82.1391 149.234 82.7398C149.234 83.2039 149.362 83.5862 149.616 83.8865C149.88 84.1868 150.299 84.469 150.872 84.7329C151.446 84.9968 152.201 85.3063 153.139 85.6612C154.076 86.0071 154.886 86.3665 155.569 86.7397C156.251 87.1037 156.774 87.5497 157.138 88.0775C157.512 88.5963 157.698 89.2652 157.698 90.0843ZM171.022 90.0843C171.022 91.0399 170.781 91.8454 170.299 92.5007C169.825 93.1468 169.143 93.6337 168.251 93.9614C167.368 94.289 166.312 94.4528 165.084 94.4528C164.037 94.4528 163.132 94.3709 162.367 94.2071C161.603 94.0433 160.934 93.8112 160.36 93.5109V91.4222C160.97 91.7225 161.698 91.9956 162.545 92.2413C163.391 92.487 164.256 92.6099 165.138 92.6099C166.431 92.6099 167.368 92.4006 167.951 91.9819C168.533 91.5633 168.824 90.9944 168.824 90.2755C168.824 89.8659 168.706 89.5064 168.469 89.197C168.242 88.8784 167.855 88.5736 167.309 88.2823C166.763 87.982 166.007 87.6543 165.043 87.2994C164.087 86.9354 163.259 86.5759 162.558 86.2209C161.866 85.8569 161.33 85.4155 160.947 84.8967C160.574 84.378 160.388 83.7045 160.388 82.8763C160.388 81.6112 160.897 80.642 161.917 79.9685C162.945 79.2859 164.292 78.9446 165.957 78.9446C166.858 78.9446 167.7 79.0356 168.483 79.2177C169.275 79.3906 170.012 79.6272 170.695 79.9275L169.93 81.7432C169.311 81.4793 168.651 81.2563 167.951 81.0743C167.25 80.8923 166.535 80.8012 165.807 80.8012C164.761 80.8012 163.955 80.9742 163.391 81.32C162.836 81.6658 162.558 82.1391 162.558 82.7398C162.558 83.2039 162.686 83.5862 162.94 83.8865C163.204 84.1868 163.623 84.469 164.196 84.7329C164.77 84.9968 165.525 85.3063 166.463 85.6612C167.4 86.0071 168.21 86.3665 168.892 86.7397C169.575 87.1037 170.098 87.5497 170.462 88.0775C170.836 88.5963 171.022 89.2652 171.022 90.0843ZM186.762 92.5962C187.136 92.5962 187.518 92.5644 187.909 92.5007C188.301 92.437 188.619 92.3596 188.865 92.2686V94.0296C188.601 94.148 188.232 94.2481 187.759 94.33C187.295 94.4119 186.84 94.4528 186.394 94.4528C185.602 94.4528 184.883 94.3163 184.237 94.0433C183.591 93.7612 183.072 93.2879 182.681 92.6235C182.298 91.9592 182.107 91.0399 182.107 89.8659V80.9924H179.978V79.8866L182.121 78.9992L183.022 75.7502H184.387V79.2177H188.769V80.9924H184.387V89.7976C184.387 90.7351 184.601 91.4358 185.029 91.9C185.466 92.3641 186.043 92.5962 186.762 92.5962ZM194.162 72.9379V79.2859C194.162 79.65 194.153 80.0186 194.134 80.3917C194.116 80.7557 194.084 81.0925 194.039 81.4019H194.189C194.498 80.8741 194.89 80.4327 195.363 80.0777C195.845 79.7137 196.391 79.4406 197.001 79.2586C197.611 79.0675 198.257 78.9719 198.94 78.9719C200.141 78.9719 201.142 79.1631 201.943 79.5453C202.753 79.9275 203.358 80.5191 203.759 81.32C204.168 82.1209 204.373 83.1584 204.373 84.4326V94.1798H202.134V84.5827C202.134 83.3359 201.847 82.403 201.274 81.7842C200.71 81.1653 199.841 80.8559 198.667 80.8559C197.556 80.8559 196.669 81.0697 196.005 81.4975C195.349 81.9161 194.876 82.535 194.585 83.3541C194.303 84.1732 194.162 85.1743 194.162 86.3574V94.1798H191.895V72.9379H194.162ZM214.803 78.9446C216.077 78.9446 217.169 79.2268 218.079 79.791C218.989 80.3553 219.686 81.1471 220.168 82.1664C220.65 83.1766 220.891 84.3598 220.891 85.7158V87.1219H210.557C210.584 88.8784 211.021 90.2163 211.868 91.1355C212.714 92.0547 213.906 92.5143 215.444 92.5143C216.391 92.5143 217.228 92.4279 217.956 92.2549C218.684 92.082 219.44 91.8272 220.222 91.4904V93.4836C219.467 93.8203 218.716 94.066 217.97 94.2208C217.233 94.3755 216.359 94.4528 215.349 94.4528C213.911 94.4528 212.655 94.1616 211.581 93.5791C210.516 92.9876 209.688 92.123 209.096 90.9853C208.505 89.8477 208.209 88.4552 208.209 86.8079C208.209 85.1971 208.478 83.8046 209.015 82.6306C209.561 81.4474 210.325 80.5373 211.308 79.9002C212.3 79.2632 213.465 78.9446 214.803 78.9446ZM214.775 80.8012C213.565 80.8012 212.6 81.1971 211.881 81.9889C211.162 82.7807 210.735 83.8865 210.598 85.3063H218.516C218.507 84.4144 218.366 83.6317 218.093 82.9582C217.829 82.2756 217.424 81.7478 216.878 81.3746C216.332 80.9924 215.631 80.8012 214.775 80.8012ZM127.05 117.723H134.026V127.402C132.98 127.757 131.901 128.021 130.791 128.193C129.69 128.366 128.456 128.453 127.091 128.453C125.016 128.453 123.264 128.039 121.835 127.211C120.416 126.382 119.337 125.204 118.6 123.675C117.863 122.137 117.494 120.312 117.494 118.2C117.494 116.135 117.899 114.333 118.709 112.794C119.528 111.256 120.707 110.064 122.245 109.218C123.792 108.362 125.649 107.934 127.815 107.934C128.925 107.934 129.976 108.039 130.968 108.248C131.969 108.449 132.898 108.735 133.753 109.109L132.866 111.129C132.129 110.81 131.314 110.537 130.422 110.31C129.54 110.082 128.625 109.969 127.678 109.969C126.049 109.969 124.652 110.305 123.487 110.979C122.331 111.652 121.444 112.603 120.825 113.832C120.215 115.061 119.911 116.517 119.911 118.2C119.911 119.866 120.179 121.318 120.716 122.555C121.253 123.784 122.09 124.74 123.228 125.422C124.366 126.105 125.831 126.446 127.624 126.446C128.525 126.446 129.298 126.396 129.945 126.296C130.591 126.187 131.178 126.059 131.706 125.914V119.798H127.05V117.723ZM140.798 128.18H138.518V106.938H140.798V128.18ZM158.49 120.671C158.49 121.9 158.331 122.997 158.012 123.961C157.694 124.926 157.234 125.741 156.633 126.405C156.033 127.069 155.305 127.579 154.449 127.934C153.603 128.28 152.643 128.453 151.569 128.453C150.568 128.453 149.648 128.28 148.811 127.934C147.983 127.579 147.264 127.069 146.654 126.405C146.053 125.741 145.585 124.926 145.248 123.961C144.92 122.997 144.756 121.9 144.756 120.671C144.756 119.033 145.034 117.641 145.589 116.494C146.144 115.338 146.936 114.46 147.965 113.859C149.002 113.25 150.235 112.945 151.664 112.945C153.029 112.945 154.222 113.25 155.241 113.859C156.269 114.469 157.066 115.352 157.63 116.508C158.203 117.654 158.49 119.042 158.49 120.671ZM147.105 120.671C147.105 121.873 147.264 122.915 147.582 123.798C147.901 124.68 148.392 125.363 149.057 125.845C149.721 126.328 150.577 126.569 151.623 126.569C152.661 126.569 153.512 126.328 154.176 125.845C154.85 125.363 155.346 124.68 155.664 123.798C155.983 122.915 156.142 121.873 156.142 120.671C156.142 119.479 155.983 118.451 155.664 117.586C155.346 116.712 154.854 116.039 154.19 115.566C153.525 115.092 152.665 114.856 151.61 114.856C150.053 114.856 148.911 115.37 148.183 116.398C147.464 117.427 147.105 118.851 147.105 120.671ZM164.674 106.938V112.248C164.674 112.858 164.656 113.45 164.62 114.023C164.592 114.596 164.569 115.042 164.551 115.361H164.674C165.084 114.687 165.675 114.119 166.449 113.655C167.222 113.19 168.21 112.958 169.411 112.958C171.286 112.958 172.779 113.609 173.889 114.91C175.008 116.203 175.568 118.128 175.568 120.685C175.568 122.369 175.313 123.789 174.804 124.944C174.294 126.1 173.575 126.974 172.647 127.565C171.718 128.157 170.622 128.453 169.357 128.453C168.174 128.453 167.2 128.234 166.435 127.798C165.68 127.352 165.097 126.81 164.688 126.173H164.51L164.046 128.18H162.408V106.938H164.674ZM169.043 114.856C167.96 114.856 167.1 115.07 166.463 115.497C165.825 115.916 165.366 116.553 165.084 117.409C164.811 118.255 164.674 119.329 164.674 120.63V120.753C164.674 122.637 164.988 124.08 165.616 125.081C166.244 126.073 167.386 126.569 169.043 126.569C170.435 126.569 171.477 126.059 172.169 125.04C172.87 124.021 173.22 122.564 173.22 120.671C173.22 118.742 172.874 117.29 172.183 116.317C171.5 115.343 170.453 114.856 169.043 114.856ZM185.288 112.945C186.562 112.945 187.654 113.227 188.564 113.791C189.475 114.355 190.171 115.147 190.653 116.166C191.135 117.177 191.377 118.36 191.377 119.716V121.122H181.042C181.07 122.878 181.507 124.216 182.353 125.136C183.199 126.055 184.392 126.514 185.93 126.514C186.876 126.514 187.713 126.428 188.442 126.255C189.17 126.082 189.925 125.827 190.708 125.49V127.484C189.952 127.82 189.202 128.066 188.455 128.221C187.718 128.375 186.844 128.453 185.834 128.453C184.396 128.453 183.14 128.162 182.066 127.579C181.001 126.988 180.173 126.123 179.582 124.985C178.99 123.848 178.694 122.455 178.694 120.808C178.694 119.197 178.963 117.805 179.5 116.631C180.046 115.447 180.81 114.537 181.793 113.9C182.785 113.263 183.95 112.945 185.288 112.945ZM185.261 114.801C184.05 114.801 183.086 115.197 182.367 115.989C181.648 116.781 181.22 117.887 181.083 119.306H189.001C188.992 118.414 188.851 117.632 188.578 116.958C188.314 116.276 187.909 115.748 187.363 115.375C186.817 114.992 186.116 114.801 185.261 114.801Z" fill="url(#paint0_linear_696_1380)"/>
<g clip-path="url(#clip0_696_1380)">
<path fill-rule="evenodd" clip-rule="evenodd" d="M46.2811 11.9255C31.8956 26.3736 22.3205 46.6123 20.8421 69.4426C17.8286 116.204 49.9542 156.096 92.5988 158.55L92.2008 164.765C48.2598 162.231 15.1675 121.134 18.2721 72.9514C19.8528 48.4814 30.4627 26.9011 46.2924 11.9255H46.2811Z" fill="#ED923A" fill-opacity="0.3"/>
<path fill-rule="evenodd" clip-rule="evenodd" d="M65.2124 159.915C56.8996 162.632 51.9187 154.892 44.8795 153.666C37.8402 152.439 35.6341 156.67 30.9375 158.206C41.5589 166.749 53.0104 167.242 65.201 159.915H65.2124Z" fill="#ED923A" fill-opacity="0.3"/>
<path fill-rule="evenodd" clip-rule="evenodd" d="M50.2329 148.747C41.6357 149.572 38.1786 140.835 31.5375 138.048C24.8963 135.262 21.9851 138.943 17.1406 139.413C25.9652 150.203 37.0301 153.242 50.2329 148.747Z" fill="#ED923A" fill-opacity="0.3"/>
<path fill-rule="evenodd" clip-rule="evenodd" d="M34.3197 131.581C26.6323 130.927 24.7445 122.614 19.2633 119.082C13.7706 115.55 10.723 118.337 6.37891 117.97C12.7131 128.966 22.0721 133.45 34.331 131.581H34.3197Z" fill="#ED923A" fill-opacity="0.3"/>
<path fill-rule="evenodd" clip-rule="evenodd" d="M25.5621 114.965C18.5457 112.683 18.3069 104.508 13.8605 100.013C9.41404 95.5178 6.0707 97.4671 2.11328 96.1829C6.00247 107.833 13.8718 114.048 25.5735 114.954L25.5621 114.965Z" fill="#ED923A" fill-opacity="0.3"/>
<path fill-rule="evenodd" clip-rule="evenodd" d="M20.0373 97.9255C13.5098 94.325 14.5788 86.2066 10.9284 80.9204C7.27802 75.6343 3.6845 76.9185 0 74.8889C1.95597 87.1468 8.68814 94.7837 20.0373 97.9255Z" fill="#ED923A" fill-opacity="0.3"/>
<path fill-rule="evenodd" clip-rule="evenodd" d="M18.4053 79.3499C12.7875 74.2702 15.4372 66.5645 12.9468 60.5101C10.4563 54.4557 6.70358 54.857 3.53081 51.9904C2.99633 64.4661 8.01134 73.5707 18.4053 79.3499Z" fill="#ED923A" fill-opacity="0.3"/>
<path fill-rule="evenodd" clip-rule="evenodd" d="M20.5439 58.5835C16.8821 52.5062 21.0442 46.4976 20.3278 40.4661C19.6227 34.4232 16.268 33.7008 14.1983 30.2607C10.7299 41.0624 12.9019 50.511 20.5439 58.5835Z" fill="#ED923A" fill-opacity="0.3"/>
<path fill-rule="evenodd" clip-rule="evenodd" d="M24.6658 40.9823C23.1078 34.6297 28.1797 30.7539 29.1236 25.3417C30.0674 19.9294 27.4064 18.2782 26.5308 14.6891C20.8221 22.9107 20.2535 31.6827 24.6771 40.9708L24.6658 40.9823Z" fill="#ED923A" fill-opacity="0.3"/>
<path fill-rule="evenodd" clip-rule="evenodd" d="M33.3761 26.6258C32.8303 21.7983 36.8787 19.5279 38.0613 15.6751C39.244 11.8223 37.4586 10.3087 37.1516 7.59106C32.2389 12.9804 30.9994 19.333 33.3648 26.6258H33.3761Z" fill="#ED923A" fill-opacity="0.3"/>
<path fill-rule="evenodd" clip-rule="evenodd" d="M42.0039 14.9413C42.8341 10.7445 46.7801 10.1368 48.7702 7.30448C50.7717 4.47221 49.7027 2.649 50.169 0.275391C44.6877 3.1994 41.9926 8.11862 42.0039 14.9413Z" fill="#ED923A" fill-opacity="0.3"/>
<path fill-rule="evenodd" clip-rule="evenodd" d="M76.7379 154.01C71.5864 147.898 75.0662 140.662 73.1671 134.149C71.268 127.625 67.4471 127.349 64.5358 123.909C62.705 136.305 66.833 146.338 76.7379 154.021V154.01Z" fill="#ED923A" fill-opacity="0.3"/>
<path fill-rule="evenodd" clip-rule="evenodd" d="M61.7659 146.705C56.7509 140.639 60.3103 133.404 58.5363 126.913C56.7622 120.423 52.9754 120.16 50.1438 116.742C48.131 129.104 52.077 139.091 61.7659 146.705Z" fill="#ED923A" fill-opacity="0.3"/>
<path fill-rule="evenodd" clip-rule="evenodd" d="M45.0549 132.888C41.8139 126.295 46.4991 120.642 46.2489 114.427C45.9988 108.2 42.6554 107.088 40.8245 103.373C36.4691 113.979 37.9475 123.829 45.0549 132.899V132.888Z" fill="#ED923A" fill-opacity="0.3"/>
<path fill-rule="evenodd" clip-rule="evenodd" d="M32.309 115.688C30.535 108.934 35.8798 104.68 36.8009 98.8775C37.7106 93.0753 34.8449 91.3668 33.8328 87.5598C27.8739 96.458 27.4191 105.861 32.309 115.688Z" fill="#ED923A" fill-opacity="0.3"/>
<path fill-rule="evenodd" clip-rule="evenodd" d="M24.9398 94.6694C24.2461 88.4544 29.4772 85.5304 31.001 80.5653C32.5362 75.6003 30.2391 73.6624 29.8525 70.1536C23.5069 77.0795 21.9035 85.2781 24.9398 94.6694Z" fill="#ED923A" fill-opacity="0.3"/>
<path fill-rule="evenodd" clip-rule="evenodd" d="M23.6506 72.8826C24.3556 67.2983 29.473 66.0599 31.8383 62.1269C34.2037 58.1938 32.6344 55.9234 33.021 52.77C26.0955 57.2076 23.0024 63.9386 23.6506 72.8826Z" fill="#ED923A" fill-opacity="0.3"/>
<path fill-rule="evenodd" clip-rule="evenodd" d="M26.7891 52.3916C28.5517 47.782 33.146 47.9998 35.9776 45.2249C38.7978 42.4385 37.9449 40.0993 38.9343 37.4963C32.1339 39.5718 28.1082 44.5713 26.7891 52.3916Z" fill="#ED923A" fill-opacity="0.3"/>
<path fill-rule="evenodd" clip-rule="evenodd" d="M33.0703 36.7053C35.2423 33.013 39.177 33.9877 42.02 32.0613C44.8516 30.1349 44.4422 27.9562 45.6704 25.8693C39.5182 26.4999 35.3333 30.1463 33.0703 36.7053Z" fill="#ED923A" fill-opacity="0.3"/>
<path fill-rule="evenodd" clip-rule="evenodd" d="M40.9844 22.7383C43.0427 19.9404 46.1586 21.11 48.6036 19.8143C51.0485 18.5185 50.9007 16.7068 52.0606 15.1244C47.0229 15.0441 43.3384 17.6127 40.9844 22.7268V22.7383Z" fill="#ED923A" fill-opacity="0.3"/>
<path fill-rule="evenodd" clip-rule="evenodd" d="M50.3906 9.78146C52.358 6.44465 55.906 7.32759 58.4647 5.58465C61.0234 3.85317 60.6595 1.8809 61.7625 -0.0111084C56.2017 0.55076 52.4262 3.85317 50.3906 9.77V9.78146Z" fill="#ED923A" fill-opacity="0.3"/>
</g>
<g clip-path="url(#clip1_696_1380)">
<path fill-rule="evenodd" clip-rule="evenodd" d="M262.578 11.9253C276.964 26.3733 286.539 46.6121 288.017 69.4423C291.031 116.204 258.905 156.096 216.261 158.55L216.659 164.765C260.6 162.231 293.692 121.134 290.587 72.9511C289.007 48.4812 278.397 26.9008 262.567 11.9253H262.578Z" fill="#ED923A" fill-opacity="0.3"/>
<path fill-rule="evenodd" clip-rule="evenodd" d="M243.655 159.915C251.968 162.632 256.949 154.892 263.988 153.666C271.027 152.439 273.233 156.67 277.93 158.206C267.308 166.749 255.857 167.242 243.666 159.915H243.655Z" fill="#ED923A" fill-opacity="0.3"/>
<path fill-rule="evenodd" clip-rule="evenodd" d="M258.642 148.746C267.239 149.572 270.696 140.834 277.338 138.048C283.979 135.262 286.89 138.942 291.734 139.413C282.91 150.203 271.845 153.241 258.642 148.746Z" fill="#ED923A" fill-opacity="0.3"/>
<path fill-rule="evenodd" clip-rule="evenodd" d="M274.551 131.58C282.239 130.926 284.127 122.613 289.608 119.081C295.1 115.55 298.148 118.336 302.492 117.969C296.158 128.966 286.799 133.449 274.54 131.58H274.551Z" fill="#ED923A" fill-opacity="0.3"/>
<path fill-rule="evenodd" clip-rule="evenodd" d="M283.301 114.965C290.318 112.683 290.556 104.508 295.003 100.013C299.449 95.5177 302.793 97.467 306.75 96.1827C302.861 107.833 294.991 114.048 283.29 114.954L283.301 114.965Z" fill="#ED923A" fill-opacity="0.3"/>
<path fill-rule="evenodd" clip-rule="evenodd" d="M288.83 97.9254C295.357 94.3249 294.288 86.2064 297.939 80.9203C301.589 75.6341 305.183 76.9184 308.867 74.8888C306.911 87.1467 300.179 94.7835 288.83 97.9254Z" fill="#ED923A" fill-opacity="0.3"/>
<path fill-rule="evenodd" clip-rule="evenodd" d="M290.45 79.3498C296.068 74.27 293.418 66.5644 295.909 60.51C298.399 54.4556 302.152 54.8569 305.325 51.9902C305.859 64.466 300.844 73.5706 290.45 79.3498Z" fill="#ED923A" fill-opacity="0.3"/>
<path fill-rule="evenodd" clip-rule="evenodd" d="M288.331 58.5833C291.993 52.5059 287.831 46.4974 288.547 40.4659C289.252 34.4229 292.607 33.7005 294.677 30.2605C298.145 41.0621 295.973 50.5107 288.331 58.5833Z" fill="#ED923A" fill-opacity="0.3"/>
<path fill-rule="evenodd" clip-rule="evenodd" d="M284.201 40.9819C285.759 34.6293 280.687 30.7536 279.744 25.3413C278.8 19.929 281.461 18.2778 282.336 14.6887C288.045 22.9104 288.614 31.6824 284.19 40.9704L284.201 40.9819Z" fill="#ED923A" fill-opacity="0.3"/>
<path fill-rule="evenodd" clip-rule="evenodd" d="M275.487 26.6258C276.033 21.7983 271.985 19.5279 270.802 15.6751C269.619 11.8223 271.405 10.3087 271.712 7.59106C276.624 12.9804 277.864 19.333 275.499 26.6258H275.487Z" fill="#ED923A" fill-opacity="0.3"/>
<path fill-rule="evenodd" clip-rule="evenodd" d="M266.859 14.9414C266.029 10.7446 262.083 10.1369 260.093 7.30461C258.092 4.47233 259.161 2.64912 258.694 0.275513C264.176 3.19952 266.871 8.11874 266.859 14.9414Z" fill="#ED923A" fill-opacity="0.3"/>
<path fill-rule="evenodd" clip-rule="evenodd" d="M232.133 154.009C237.285 147.898 233.805 140.662 235.704 134.149C237.603 127.625 241.424 127.349 244.335 123.909C246.166 136.305 242.038 146.338 232.133 154.021V154.009Z" fill="#ED923A" fill-opacity="0.3"/>
<path fill-rule="evenodd" clip-rule="evenodd" d="M247.093 146.705C252.109 140.639 248.549 133.404 250.323 126.913C252.097 120.423 255.884 120.16 258.716 116.742C260.728 129.104 256.782 139.091 247.093 146.705Z" fill="#ED923A" fill-opacity="0.3"/>
<path fill-rule="evenodd" clip-rule="evenodd" d="M263.812 132.888C267.053 126.294 262.368 120.641 262.618 114.426C262.868 108.2 266.212 107.088 268.043 103.372C272.398 113.979 270.92 123.829 263.812 132.899V132.888Z" fill="#ED923A" fill-opacity="0.3"/>
<path fill-rule="evenodd" clip-rule="evenodd" d="M276.558 115.688C278.332 108.934 272.987 104.68 272.066 98.8775C271.157 93.0753 274.022 91.3668 275.034 87.5598C280.993 96.458 281.448 105.861 276.558 115.688Z" fill="#ED923A" fill-opacity="0.3"/>
<path fill-rule="evenodd" clip-rule="evenodd" d="M283.927 94.6693C284.621 88.4543 279.39 85.5303 277.866 80.5652C276.331 75.6001 278.628 73.6623 279.015 70.1534C285.36 77.0793 286.964 85.278 283.927 94.6693Z" fill="#ED923A" fill-opacity="0.3"/>
<path fill-rule="evenodd" clip-rule="evenodd" d="M285.213 72.8824C284.508 67.2981 279.39 66.0597 277.025 62.1266C274.66 58.1935 276.229 55.9231 275.842 52.7698C282.768 57.2074 285.861 63.9383 285.213 72.8824Z" fill="#ED923A" fill-opacity="0.3"/>
<path fill-rule="evenodd" clip-rule="evenodd" d="M282.078 52.3915C280.315 47.7819 275.721 47.9997 272.89 45.2248C270.069 42.4384 270.922 40.0992 269.933 37.4962C276.733 39.5717 280.759 44.5712 282.078 52.3915Z" fill="#ED923A" fill-opacity="0.3"/>
<path fill-rule="evenodd" clip-rule="evenodd" d="M275.801 36.7052C273.629 33.0129 269.694 33.9876 266.851 32.0612C264.019 30.1348 264.429 27.9561 263.201 25.8691C269.353 26.4998 273.538 30.1462 275.801 36.7052Z" fill="#ED923A" fill-opacity="0.3"/>
<path fill-rule="evenodd" clip-rule="evenodd" d="M267.879 22.7385C265.821 19.9406 262.705 21.1103 260.26 19.8145C257.815 18.5188 257.963 16.707 256.803 15.1246C261.84 15.0444 265.525 17.6129 267.879 22.7271V22.7385Z" fill="#ED923A" fill-opacity="0.3"/>
<path fill-rule="evenodd" clip-rule="evenodd" d="M258.477 9.78134C256.509 6.44453 252.961 7.32746 250.403 5.58452C247.844 3.85305 248.208 1.88078 247.105 -0.0112305C252.666 0.550638 256.441 3.85305 258.477 9.76987V9.78134Z" fill="#ED923A" fill-opacity="0.3"/>
</g>
<defs>
<linearGradient id="paint0_linear_696_1380" x1="57.0391" y1="83.1798" x2="251.586" y2="83.1798" gradientUnits="userSpaceOnUse">
<stop stop-color="#010E39"/>
<stop offset="1" stop-color="#0344A2"/>
</linearGradient>
<clipPath id="clip0_696_1380">
<rect width="92.59" height="165.052" fill="white"/>
</clipPath>
<clipPath id="clip1_696_1380">
<rect width="92.59" height="165.052" fill="white" transform="matrix(-1 0 0 1 308.867 0)"/>
</clipPath>
</defs>
</svg>
